ISO-10303-21;
HEADER;
/* Generated by software containing ST-Developer
 * from STEP Tools, Inc. (www.steptools.com) 
 */

FILE_DESCRIPTION(
/* description */ ('KiCad electronic assembly'),
/* implementation_level */ '2;1');

FILE_NAME(
/* name */ 'AnishPad Case Bottom.step',
/* time_stamp */ '2026-07-27T10:21:21-07:00',
/* author */ (''),
/* organization */ (''),
/* preprocessor_version */ 'ST-DEVELOPER v20.1',
/* originating_system */ 'Autodesk Translation Framework v15.8.0.0',
/* authorisation */ '');

FILE_SCHEMA (('AUTOMOTIVE_DESIGN { 1 0 10303 214 3 1 1 }'));
ENDSEC;

DATA;
#10=MECHANICAL_DESIGN_GEOMETRIC_PRESENTATION_REPRESENTATION('',(#13),#1865);
#11=SHAPE_REPRESENTATION_RELATIONSHIP('SRR','None',#1871,#12);
#12=ADVANCED_BREP_SHAPE_REPRESENTATION('',(#14),#1864);
#13=STYLED_ITEM('',(#1882),#14);
#14=MANIFOLD_SOLID_BREP('Bottom',#1081);
#15=TOROIDAL_SURFACE('',#1124,4.25,1.);
#16=TOROIDAL_SURFACE('',#1130,4.25,1.);
#17=TOROIDAL_SURFACE('',#1135,4.25,1.);
#18=TOROIDAL_SURFACE('',#1140,4.25,1.);
#19=TOROIDAL_SURFACE('',#1168,4.25,1.);
#20=TOROIDAL_SURFACE('',#1174,4.25,1.);
#21=TOROIDAL_SURFACE('',#1179,4.25,1.);
#22=TOROIDAL_SURFACE('',#1184,4.25,1.);
#23=CYLINDRICAL_SURFACE('',#1109,6.818);
#24=CYLINDRICAL_SURFACE('',#1116,17.294);
#25=CYLINDRICAL_SURFACE('',#1119,6.818);
#26=CYLINDRICAL_SURFACE('',#1122,6.818);
#27=CYLINDRICAL_SURFACE('',#1128,1.);
#28=CYLINDRICAL_SURFACE('',#1133,1.);
#29=CYLINDRICAL_SURFACE('',#1138,1.);
#30=CYLINDRICAL_SURFACE('',#1143,1.);
#31=CYLINDRICAL_SURFACE('',#1145,3.25);
#32=CYLINDRICAL_SURFACE('',#1148,3.25);
#33=CYLINDRICAL_SURFACE('',#1150,1.35);
#34=CYLINDRICAL_SURFACE('',#1154,1.35);
#35=CYLINDRICAL_SURFACE('',#1158,1.35);
#36=CYLINDRICAL_SURFACE('',#1162,1.35);
#37=CYLINDRICAL_SURFACE('',#1166,3.25);
#38=CYLINDRICAL_SURFACE('',#1172,1.);
#39=CYLINDRICAL_SURFACE('',#1177,1.);
#40=CYLINDRICAL_SURFACE('',#1182,1.);
#41=CYLINDRICAL_SURFACE('',#1188,1.);
#42=CYLINDRICAL_SURFACE('',#1191,3.25);
#43=CYLINDRICAL_SURFACE('',#1201,7.29375023251002);
#44=CYLINDRICAL_SURFACE('',#1206,4.79375023251001);
#45=FACE_BOUND('',#156,.T.);
#46=FACE_BOUND('',#168,.T.);
#47=FACE_BOUND('',#204,.T.);
#48=FACE_BOUND('',#209,.T.);
#49=FACE_BOUND('',#210,.T.);
#50=FACE_BOUND('',#211,.T.);
#51=FACE_BOUND('',#212,.T.);
#52=FACE_BOUND('',#213,.T.);
#53=FACE_BOUND('',#215,.T.);
#54=FACE_BOUND('',#226,.T.);
#55=PLANE('',#1086);
#56=PLANE('',#1090);
#57=PLANE('',#1091);
#58=PLANE('',#1098);
#59=PLANE('',#1101);
#60=PLANE('',#1104);
#61=PLANE('',#1107);
#62=PLANE('',#1108);
#63=PLANE('',#1111);
#64=PLANE('',#1118);
#65=PLANE('',#1121);
#66=PLANE('',#1144);
#67=PLANE('',#1147);
#68=PLANE('',#1153);
#69=PLANE('',#1157);
#70=PLANE('',#1161);
#71=PLANE('',#1165);
#72=PLANE('',#1189);
#73=PLANE('',#1190);
#74=PLANE('',#1192);
#75=PLANE('',#1193);
#76=PLANE('',#1195);
#77=PLANE('',#1197);
#78=PLANE('',#1198);
#79=PLANE('',#1199);
#80=PLANE('',#1200);
#81=PLANE('',#1203);
#82=PLANE('',#1204);
#83=PLANE('',#1205);
#84=PLANE('',#1208);
#85=FACE_OUTER_BOUND('',#151,.T.);
#86=FACE_OUTER_BOUND('',#152,.T.);
#87=FACE_OUTER_BOUND('',#153,.T.);
#88=FACE_OUTER_BOUND('',#154,.T.);
#89=FACE_OUTER_BOUND('',#155,.T.);
#90=FACE_OUTER_BOUND('',#157,.T.);
#91=FACE_OUTER_BOUND('',#158,.T.);
#92=FACE_OUTER_BOUND('',#159,.T.);
#93=FACE_OUTER_BOUND('',#160,.T.);
#94=FACE_OUTER_BOUND('',#161,.T.);
#95=FACE_OUTER_BOUND('',#162,.T.);
#96=FACE_OUTER_BOUND('',#163,.T.);
#97=FACE_OUTER_BOUND('',#164,.T.);
#98=FACE_OUTER_BOUND('',#165,.T.);
#99=FACE_OUTER_BOUND('',#166,.T.);
#100=FACE_OUTER_BOUND('',#167,.T.);
#101=FACE_OUTER_BOUND('',#169,.T.);
#102=FACE_OUTER_BOUND('',#170,.T.);
#103=FACE_OUTER_BOUND('',#171,.T.);
#104=FACE_OUTER_BOUND('',#172,.T.);
#105=FACE_OUTER_BOUND('',#173,.T.);
#106=FACE_OUTER_BOUND('',#174,.T.);
#107=FACE_OUTER_BOUND('',#175,.T.);
#108=FACE_OUTER_BOUND('',#176,.T.);
#109=FACE_OUTER_BOUND('',#177,.T.);
#110=FACE_OUTER_BOUND('',#178,.T.);
#111=FACE_OUTER_BOUND('',#179,.T.);
#112=FACE_OUTER_BOUND('',#180,.T.);
#113=FACE_OUTER_BOUND('',#181,.T.);
#114=FACE_OUTER_BOUND('',#182,.T.);
#115=FACE_OUTER_BOUND('',#183,.T.);
#116=FACE_OUTER_BOUND('',#184,.T.);
#117=FACE_OUTER_BOUND('',#185,.T.);
#118=FACE_OUTER_BOUND('',#186,.T.);
#119=FACE_OUTER_BOUND('',#187,.T.);
#120=FACE_OUTER_BOUND('',#188,.T.);
#121=FACE_OUTER_BOUND('',#189,.T.);
#122=FACE_OUTER_BOUND('',#190,.T.);
#123=FACE_OUTER_BOUND('',#191,.T.);
#124=FACE_OUTER_BOUND('',#192,.T.);
#125=FACE_OUTER_BOUND('',#193,.T.);
#126=FACE_OUTER_BOUND('',#194,.T.);
#127=FACE_OUTER_BOUND('',#195,.T.);
#128=FACE_OUTER_BOUND('',#196,.T.);
#129=FACE_OUTER_BOUND('',#197,.T.);
#130=FACE_OUTER_BOUND('',#198,.T.);
#131=FACE_OUTER_BOUND('',#199,.T.);
#132=FACE_OUTER_BOUND('',#200,.T.);
#133=FACE_OUTER_BOUND('',#201,.T.);
#134=FACE_OUTER_BOUND('',#202,.T.);
#135=FACE_OUTER_BOUND('',#203,.T.);
#136=FACE_OUTER_BOUND('',#205,.T.);
#137=FACE_OUTER_BOUND('',#206,.T.);
#138=FACE_OUTER_BOUND('',#207,.T.);
#139=FACE_OUTER_BOUND('',#208,.T.);
#140=FACE_OUTER_BOUND('',#214,.T.);
#141=FACE_OUTER_BOUND('',#216,.T.);
#142=FACE_OUTER_BOUND('',#217,.T.);
#143=FACE_OUTER_BOUND('',#218,.T.);
#144=FACE_OUTER_BOUND('',#219,.T.);
#145=FACE_OUTER_BOUND('',#220,.T.);
#146=FACE_OUTER_BOUND('',#221,.T.);
#147=FACE_OUTER_BOUND('',#222,.T.);
#148=FACE_OUTER_BOUND('',#223,.T.);
#149=FACE_OUTER_BOUND('',#224,.T.);
#150=FACE_OUTER_BOUND('',#225,.T.);
#151=EDGE_LOOP('',(#709,#710,#711,#712));
#152=EDGE_LOOP('',(#713,#714,#715,#716));
#153=EDGE_LOOP('',(#717,#718,#719,#720));
#154=EDGE_LOOP('',(#721,#722,#723,#724));
#155=EDGE_LOOP('',(#725,#726,#727,#728,#729,#730,#731,#732));
#156=EDGE_LOOP('',(#733,#734,#735,#736));
#157=EDGE_LOOP('',(#737,#738,#739,#740));
#158=EDGE_LOOP('',(#741,#742,#743,#744));
#159=EDGE_LOOP('',(#745,#746,#747,#748));
#160=EDGE_LOOP('',(#749,#750,#751,#752));
#161=EDGE_LOOP('',(#753,#754,#755,#756));
#162=EDGE_LOOP('',(#757,#758,#759,#760));
#163=EDGE_LOOP('',(#761,#762,#763,#764));
#164=EDGE_LOOP('',(#765,#766,#767,#768));
#165=EDGE_LOOP('',(#769,#770,#771,#772));
#166=EDGE_LOOP('',(#773,#774,#775,#776));
#167=EDGE_LOOP('',(#777,#778,#779,#780));
#168=EDGE_LOOP('',(#781,#782,#783,#784,#785,#786,#787,#788));
#169=EDGE_LOOP('',(#789,#790,#791,#792));
#170=EDGE_LOOP('',(#793,#794,#795,#796));
#171=EDGE_LOOP('',(#797,#798,#799,#800));
#172=EDGE_LOOP('',(#801,#802,#803,#804));
#173=EDGE_LOOP('',(#805,#806,#807,#808));
#174=EDGE_LOOP('',(#809,#810,#811,#812));
#175=EDGE_LOOP('',(#813,#814,#815,#816));
#176=EDGE_LOOP('',(#817,#818,#819,#820));
#177=EDGE_LOOP('',(#821,#822,#823,#824));
#178=EDGE_LOOP('',(#825,#826,#827,#828));
#179=EDGE_LOOP('',(#829,#830,#831,#832));
#180=EDGE_LOOP('',(#833,#834,#835,#836));
#181=EDGE_LOOP('',(#837,#838,#839,#840));
#182=EDGE_LOOP('',(#841,#842,#843,#844));
#183=EDGE_LOOP('',(#845,#846,#847,#848));
#184=EDGE_LOOP('',(#849,#850,#851,#852));
#185=EDGE_LOOP('',(#853,#854,#855,#856));
#186=EDGE_LOOP('',(#857,#858,#859,#860));
#187=EDGE_LOOP('',(#861));
#188=EDGE_LOOP('',(#862,#863,#864,#865));
#189=EDGE_LOOP('',(#866));
#190=EDGE_LOOP('',(#867,#868,#869,#870));
#191=EDGE_LOOP('',(#871));
#192=EDGE_LOOP('',(#872,#873,#874,#875));
#193=EDGE_LOOP('',(#876));
#194=EDGE_LOOP('',(#877,#878,#879,#880));
#195=EDGE_LOOP('',(#881,#882,#883,#884));
#196=EDGE_LOOP('',(#885,#886,#887,#888));
#197=EDGE_LOOP('',(#889,#890,#891,#892));
#198=EDGE_LOOP('',(#893,#894,#895,#896));
#199=EDGE_LOOP('',(#897,#898,#899,#900));
#200=EDGE_LOOP('',(#901,#902,#903,#904));
#201=EDGE_LOOP('',(#905,#906,#907,#908));
#202=EDGE_LOOP('',(#909,#910,#911,#912));
#203=EDGE_LOOP('',(#913,#914,#915,#916));
#204=EDGE_LOOP('',(#917,#918,#919,#920,#921,#922,#923,#924));
#205=EDGE_LOOP('',(#925,#926,#927,#928));
#206=EDGE_LOOP('',(#929,#930,#931,#932));
#207=EDGE_LOOP('',(#933,#934,#935,#936));
#208=EDGE_LOOP('',(#937,#938,#939,#940,#941,#942,#943,#944));
#209=EDGE_LOOP('',(#945,#946,#947,#948,#949));
#210=EDGE_LOOP('',(#950));
#211=EDGE_LOOP('',(#951));
#212=EDGE_LOOP('',(#952));
#213=EDGE_LOOP('',(#953));
#214=EDGE_LOOP('',(#954,#955,#956,#957,#958));
#215=EDGE_LOOP('',(#959,#960,#961,#962));
#216=EDGE_LOOP('',(#963,#964,#965,#966));
#217=EDGE_LOOP('',(#967,#968,#969,#970));
#218=EDGE_LOOP('',(#971,#972,#973,#974));
#219=EDGE_LOOP('',(#975,#976,#977,#978));
#220=EDGE_LOOP('',(#979,#980,#981,#982));
#221=EDGE_LOOP('',(#983,#984,#985,#986));
#222=EDGE_LOOP('',(#987,#988,#989,#990));
#223=EDGE_LOOP('',(#991,#992,#993,#994));
#224=EDGE_LOOP('',(#995,#996,#997,#998));
#225=EDGE_LOOP('',(#999,#1000,#1001,#1002,#1003));
#226=EDGE_LOOP('',(#1004,#1005,#1006,#1007,#1008));
#227=CIRCLE('',#1084,11.);
#228=CIRCLE('',#1085,10.);
#229=CIRCLE('',#1088,11.);
#230=CIRCLE('',#1089,10.);
#231=CIRCLE('',#1092,16.294);
#232=CIRCLE('',#1093,5.818);
#233=CIRCLE('',#1094,5.818);
#234=CIRCLE('',#1095,5.818);
#235=CIRCLE('',#1097,17.294);
#236=CIRCLE('',#1100,6.818);
#237=CIRCLE('',#1103,6.818);
#238=CIRCLE('',#1106,6.818);
#239=CIRCLE('',#1110,6.818);
#240=CIRCLE('',#1112,4.25);
#241=CIRCLE('',#1113,4.25);
#242=CIRCLE('',#1114,4.25);
#243=CIRCLE('',#1115,4.25);
#244=CIRCLE('',#1117,17.294);
#245=CIRCLE('',#1120,6.818);
#246=CIRCLE('',#1123,6.818);
#247=CIRCLE('',#1125,0.999999999999996);
#248=CIRCLE('',#1126,3.25);
#249=CIRCLE('',#1127,0.999999999999996);
#250=CIRCLE('',#1129,0.999999999999996);
#251=CIRCLE('',#1131,0.999999999999999);
#252=CIRCLE('',#1132,3.25);
#253=CIRCLE('',#1134,1.);
#254=CIRCLE('',#1136,0.999999999999996);
#255=CIRCLE('',#1137,3.25);
#256=CIRCLE('',#1139,0.999999999999996);
#257=CIRCLE('',#1141,1.);
#258=CIRCLE('',#1142,3.25);
#259=CIRCLE('',#1146,3.25);
#260=CIRCLE('',#1149,3.25);
#261=CIRCLE('',#1151,1.35);
#262=CIRCLE('',#1152,1.35);
#263=CIRCLE('',#1155,1.35);
#264=CIRCLE('',#1156,1.35);
#265=CIRCLE('',#1159,1.35);
#266=CIRCLE('',#1160,1.35);
#267=CIRCLE('',#1163,1.35);
#268=CIRCLE('',#1164,1.35);
#269=CIRCLE('',#1167,3.25);
#270=CIRCLE('',#1169,0.999999999999996);
#271=CIRCLE('',#1170,1.);
#272=CIRCLE('',#1171,4.25);
#273=CIRCLE('',#1173,1.);
#274=CIRCLE('',#1175,0.999999999999996);
#275=CIRCLE('',#1176,4.25);
#276=CIRCLE('',#1178,0.999999999999996);
#277=CIRCLE('',#1180,1.);
#278=CIRCLE('',#1181,4.25);
#279=CIRCLE('',#1183,1.);
#280=CIRCLE('',#1185,0.999999999999996);
#281=CIRCLE('',#1186,4.25);
#282=CIRCLE('',#1187,3.25);
#283=CIRCLE('',#1194,7.29375023251002);
#284=CIRCLE('',#1196,4.79375023251001);
#285=CIRCLE('',#1202,7.29375023251001);
#286=CIRCLE('',#1207,4.79375023251001);
#287=LINE('',#1557,#377);
#288=LINE('',#1561,#378);
#289=LINE('',#1566,#379);
#290=LINE('',#1567,#380);
#291=LINE('',#1568,#381);
#292=LINE('',#1572,#382);
#293=LINE('',#1576,#383);
#294=LINE('',#1577,#384);
#295=LINE('',#1583,#385);
#296=LINE('',#1587,#386);
#297=LINE('',#1591,#387);
#298=LINE('',#1594,#388);
#299=LINE('',#1597,#389);
#300=LINE('',#1600,#390);
#301=LINE('',#1603,#391);
#302=LINE('',#1604,#392);
#303=LINE('',#1607,#393);
#304=LINE('',#1611,#394);
#305=LINE('',#1612,#395);
#306=LINE('',#1615,#396);
#307=LINE('',#1619,#397);
#308=LINE('',#1620,#398);
#309=LINE('',#1623,#399);
#310=LINE('',#1626,#400);
#311=LINE('',#1629,#401);
#312=LINE('',#1631,#402);
#313=LINE('',#1632,#403);
#314=LINE('',#1635,#404);
#315=LINE('',#1639,#405);
#316=LINE('',#1640,#406);
#317=LINE('',#1645,#407);
#318=LINE('',#1649,#408);
#319=LINE('',#1653,#409);
#320=LINE('',#1656,#410);
#321=LINE('',#1659,#411);
#322=LINE('',#1663,#412);
#323=LINE('',#1664,#413);
#324=LINE('',#1667,#414);
#325=LINE('',#1671,#415);
#326=LINE('',#1672,#416);
#327=LINE('',#1684,#417);
#328=LINE('',#1692,#418);
#329=LINE('',#1700,#419);
#330=LINE('',#1706,#420);
#331=LINE('',#1709,#421);
#332=LINE('',#1711,#422);
#333=LINE('',#1712,#423);
#334=LINE('',#1715,#424);
#335=LINE('',#1719,#425);
#336=LINE('',#1720,#426);
#337=LINE('',#1723,#427);
#338=LINE('',#1729,#428);
#339=LINE('',#1736,#429);
#340=LINE('',#1743,#430);
#341=LINE('',#1750,#431);
#342=LINE('',#1756,#432);
#343=LINE('',#1766,#433);
#344=LINE('',#1774,#434);
#345=LINE('',#1783,#435);
#346=LINE('',#1784,#436);
#347=LINE('',#1792,#437);
#348=LINE('',#1793,#438);
#349=LINE('',#1797,#439);
#350=LINE('',#1799,#440);
#351=LINE('',#1801,#441);
#352=LINE('',#1802,#442);
#353=LINE('',#1804,#443);
#354=LINE('',#1806,#444);
#355=LINE('',#1812,#445);
#356=LINE('',#1814,#446);
#357=LINE('',#1815,#447);
#358=LINE('',#1821,#448);
#359=LINE('',#1823,#449);
#360=LINE('',#1825,#450);
#361=LINE('',#1826,#451);
#362=LINE('',#1829,#452);
#363=LINE('',#1831,#453);
#364=LINE('',#1832,#454);
#365=LINE('',#1835,#455);
#366=LINE('',#1836,#456);
#367=LINE('',#1839,#457);
#368=LINE('',#1840,#458);
#369=LINE('',#1844,#459);
#370=LINE('',#1845,#460);
#371=LINE('',#1846,#461);
#372=LINE('',#1851,#462);
#373=LINE('',#1852,#463);
#374=LINE('',#1854,#464);
#375=LINE('',#1857,#465);
#376=LINE('',#1858,#466);
#377=VECTOR('',#1213,10.);
#378=VECTOR('',#1216,10.);
#379=VECTOR('',#1221,10.);
#380=VECTOR('',#1222,10.);
#381=VECTOR('',#1223,10.);
#382=VECTOR('',#1226,10.);
#383=VECTOR('',#1233,10.);
#384=VECTOR('',#1234,10.);
#385=VECTOR('',#1239,10.);
#386=VECTOR('',#1242,10.);
#387=VECTOR('',#1245,10.);
#388=VECTOR('',#1248,10.);
#389=VECTOR('',#1251,10.);
#390=VECTOR('',#1254,10.);
#391=VECTOR('',#1257,10.);
#392=VECTOR('',#1258,10.);
#393=VECTOR('',#1261,10.);
#394=VECTOR('',#1266,10.);
#395=VECTOR('',#1267,10.);
#396=VECTOR('',#1270,10.);
#397=VECTOR('',#1275,10.);
#398=VECTOR('',#1276,10.);
#399=VECTOR('',#1279,10.);
#400=VECTOR('',#1284,10.);
#401=VECTOR('',#1287,10.);
#402=VECTOR('',#1288,10.);
#403=VECTOR('',#1289,10.);
#404=VECTOR('',#1292,10.);
#405=VECTOR('',#1297,10.);
#406=VECTOR('',#1298,10.);
#407=VECTOR('',#1301,10.);
#408=VECTOR('',#1304,10.);
#409=VECTOR('',#1307,10.);
#410=VECTOR('',#1310,10.);
#411=VECTOR('',#1313,10.);
#412=VECTOR('',#1318,10.);
#413=VECTOR('',#1319,10.);
#414=VECTOR('',#1322,10.);
#415=VECTOR('',#1327,10.);
#416=VECTOR('',#1328,10.);
#417=VECTOR('',#1345,10.);
#418=VECTOR('',#1356,10.);
#419=VECTOR('',#1367,10.);
#420=VECTOR('',#1376,10.);
#421=VECTOR('',#1379,10.);
#422=VECTOR('',#1380,10.);
#423=VECTOR('',#1381,10.);
#424=VECTOR('',#1384,10.);
#425=VECTOR('',#1389,10.);
#426=VECTOR('',#1390,10.);
#427=VECTOR('',#1393,10.);
#428=VECTOR('',#1400,1.35);
#429=VECTOR('',#1409,1.35);
#430=VECTOR('',#1418,1.35);
#431=VECTOR('',#1427,1.35);
#432=VECTOR('',#1436,10.);
#433=VECTOR('',#1449,10.);
#434=VECTOR('',#1460,10.);
#435=VECTOR('',#1471,10.);
#436=VECTOR('',#1472,10.);
#437=VECTOR('',#1483,10.);
#438=VECTOR('',#1484,10.);
#439=VECTOR('',#1487,10.);
#440=VECTOR('',#1488,10.);
#441=VECTOR('',#1489,10.);
#442=VECTOR('',#1490,10.);
#443=VECTOR('',#1493,10.);
#444=VECTOR('',#1496,10.);
#445=VECTOR('',#1503,10.);
#446=VECTOR('',#1504,10.);
#447=VECTOR('',#1505,10.);
#448=VECTOR('',#1510,10.);
#449=VECTOR('',#1511,10.);
#450=VECTOR('',#1512,10.);
#451=VECTOR('',#1513,10.);
#452=VECTOR('',#1516,10.);
#453=VECTOR('',#1517,10.);
#454=VECTOR('',#1518,10.);
#455=VECTOR('',#1521,10.);
#456=VECTOR('',#1522,10.);
#457=VECTOR('',#1525,10.);
#458=VECTOR('',#1526,10.);
#459=VECTOR('',#1529,10.);
#460=VECTOR('',#1530,10.);
#461=VECTOR('',#1531,10.);
#462=VECTOR('',#1538,10.);
#463=VECTOR('',#1539,10.);
#464=VECTOR('',#1542,10.);
#465=VECTOR('',#1545,10.);
#466=VECTOR('',#1546,10.);
#467=VERTEX_POINT('',#1555);
#468=VERTEX_POINT('',#1556);
#469=VERTEX_POINT('',#1558);
#470=VERTEX_POINT('',#1560);
#471=VERTEX_POINT('',#1564);
#472=VERTEX_POINT('',#1565);
#473=VERTEX_POINT('',#1570);
#474=VERTEX_POINT('',#1571);
#475=VERTEX_POINT('',#1579);
#476=VERTEX_POINT('',#1580);
#477=VERTEX_POINT('',#1582);
#478=VERTEX_POINT('',#1584);
#479=VERTEX_POINT('',#1586);
#480=VERTEX_POINT('',#1588);
#481=VERTEX_POINT('',#1590);
#482=VERTEX_POINT('',#1592);
#483=VERTEX_POINT('',#1596);
#484=VERTEX_POINT('',#1598);
#485=VERTEX_POINT('',#1602);
#486=VERTEX_POINT('',#1606);
#487=VERTEX_POINT('',#1610);
#488=VERTEX_POINT('',#1614);
#489=VERTEX_POINT('',#1618);
#490=VERTEX_POINT('',#1622);
#491=VERTEX_POINT('',#1628);
#492=VERTEX_POINT('',#1630);
#493=VERTEX_POINT('',#1634);
#494=VERTEX_POINT('',#1638);
#495=VERTEX_POINT('',#1641);
#496=VERTEX_POINT('',#1642);
#497=VERTEX_POINT('',#1644);
#498=VERTEX_POINT('',#1646);
#499=VERTEX_POINT('',#1648);
#500=VERTEX_POINT('',#1650);
#501=VERTEX_POINT('',#1652);
#502=VERTEX_POINT('',#1654);
#503=VERTEX_POINT('',#1658);
#504=VERTEX_POINT('',#1662);
#505=VERTEX_POINT('',#1666);
#506=VERTEX_POINT('',#1670);
#507=VERTEX_POINT('',#1676);
#508=VERTEX_POINT('',#1678);
#509=VERTEX_POINT('',#1682);
#510=VERTEX_POINT('',#1686);
#511=VERTEX_POINT('',#1690);
#512=VERTEX_POINT('',#1694);
#513=VERTEX_POINT('',#1698);
#514=VERTEX_POINT('',#1702);
#515=VERTEX_POINT('',#1708);
#516=VERTEX_POINT('',#1710);
#517=VERTEX_POINT('',#1714);
#518=VERTEX_POINT('',#1718);
#519=VERTEX_POINT('',#1722);
#520=VERTEX_POINT('',#1726);
#521=VERTEX_POINT('',#1728);
#522=VERTEX_POINT('',#1733);
#523=VERTEX_POINT('',#1735);
#524=VERTEX_POINT('',#1740);
#525=VERTEX_POINT('',#1742);
#526=VERTEX_POINT('',#1747);
#527=VERTEX_POINT('',#1749);
#528=VERTEX_POINT('',#1754);
#529=VERTEX_POINT('',#1758);
#530=VERTEX_POINT('',#1760);
#531=VERTEX_POINT('',#1764);
#532=VERTEX_POINT('',#1768);
#533=VERTEX_POINT('',#1772);
#534=VERTEX_POINT('',#1776);
#535=VERTEX_POINT('',#1780);
#536=VERTEX_POINT('',#1781);
#537=VERTEX_POINT('',#1786);
#538=VERTEX_POINT('',#1787);
#539=VERTEX_POINT('',#1795);
#540=VERTEX_POINT('',#1796);
#541=VERTEX_POINT('',#1798);
#542=VERTEX_POINT('',#1800);
#543=VERTEX_POINT('',#1809);
#544=VERTEX_POINT('',#1811);
#545=VERTEX_POINT('',#1813);
#546=VERTEX_POINT('',#1817);
#547=VERTEX_POINT('',#1818);
#548=VERTEX_POINT('',#1820);
#549=VERTEX_POINT('',#1822);
#550=VERTEX_POINT('',#1824);
#551=VERTEX_POINT('',#1828);
#552=VERTEX_POINT('',#1830);
#553=VERTEX_POINT('',#1834);
#554=VERTEX_POINT('',#1838);
#555=VERTEX_POINT('',#1842);
#556=VERTEX_POINT('',#1843);
#557=VERTEX_POINT('',#1850);
#558=VERTEX_POINT('',#1856);
#559=EDGE_CURVE('',#467,#468,#287,.T.);
#560=EDGE_CURVE('',#468,#469,#227,.T.);
#561=EDGE_CURVE('',#469,#470,#288,.T.);
#562=EDGE_CURVE('',#467,#470,#228,.T.);
#563=EDGE_CURVE('',#471,#472,#289,.T.);
#564=EDGE_CURVE('',#472,#468,#290,.T.);
#565=EDGE_CURVE('',#471,#467,#291,.T.);
#566=EDGE_CURVE('',#473,#474,#292,.T.);
#567=EDGE_CURVE('',#474,#472,#229,.T.);
#568=EDGE_CURVE('',#473,#471,#230,.T.);
#569=EDGE_CURVE('',#469,#474,#293,.T.);
#570=EDGE_CURVE('',#470,#473,#294,.T.);
#571=EDGE_CURVE('',#475,#476,#231,.T.);
#572=EDGE_CURVE('',#477,#475,#295,.T.);
#573=EDGE_CURVE('',#478,#477,#232,.T.);
#574=EDGE_CURVE('',#479,#478,#296,.T.);
#575=EDGE_CURVE('',#480,#479,#233,.T.);
#576=EDGE_CURVE('',#481,#480,#297,.T.);
#577=EDGE_CURVE('',#482,#481,#234,.T.);
#578=EDGE_CURVE('',#476,#482,#298,.T.);
#579=EDGE_CURVE('',#476,#483,#299,.T.);
#580=EDGE_CURVE('',#483,#484,#235,.T.);
#581=EDGE_CURVE('',#484,#475,#300,.T.);
#582=EDGE_CURVE('',#482,#485,#301,.T.);
#583=EDGE_CURVE('',#485,#483,#302,.T.);
#584=EDGE_CURVE('',#481,#486,#303,.T.);
#585=EDGE_CURVE('',#486,#485,#236,.T.);
#586=EDGE_CURVE('',#480,#487,#304,.T.);
#587=EDGE_CURVE('',#487,#486,#305,.T.);
#588=EDGE_CURVE('',#479,#488,#306,.T.);
#589=EDGE_CURVE('',#488,#487,#237,.T.);
#590=EDGE_CURVE('',#478,#489,#307,.T.);
#591=EDGE_CURVE('',#489,#488,#308,.T.);
#592=EDGE_CURVE('',#477,#490,#309,.T.);
#593=EDGE_CURVE('',#490,#489,#238,.T.);
#594=EDGE_CURVE('',#484,#490,#310,.T.);
#595=EDGE_CURVE('',#491,#489,#311,.T.);
#596=EDGE_CURVE('',#491,#492,#312,.T.);
#597=EDGE_CURVE('',#488,#492,#313,.T.);
#598=EDGE_CURVE('',#490,#493,#314,.T.);
#599=EDGE_CURVE('',#493,#491,#239,.T.);
#600=EDGE_CURVE('',#494,#484,#315,.T.);
#601=EDGE_CURVE('',#494,#493,#316,.T.);
#602=EDGE_CURVE('',#495,#496,#240,.T.);
#603=EDGE_CURVE('',#497,#495,#317,.T.);
#604=EDGE_CURVE('',#498,#497,#241,.T.);
#605=EDGE_CURVE('',#499,#498,#318,.T.);
#606=EDGE_CURVE('',#500,#499,#242,.T.);
#607=EDGE_CURVE('',#501,#500,#319,.T.);
#608=EDGE_CURVE('',#502,#501,#243,.T.);
#609=EDGE_CURVE('',#496,#502,#320,.T.);
#610=EDGE_CURVE('',#483,#503,#321,.T.);
#611=EDGE_CURVE('',#503,#494,#244,.T.);
#612=EDGE_CURVE('',#504,#485,#322,.T.);
#613=EDGE_CURVE('',#504,#503,#323,.T.);
#614=EDGE_CURVE('',#486,#505,#324,.T.);
#615=EDGE_CURVE('',#505,#504,#245,.T.);
#616=EDGE_CURVE('',#506,#487,#325,.T.);
#617=EDGE_CURVE('',#506,#505,#326,.T.);
#618=EDGE_CURVE('',#492,#506,#246,.T.);
#619=EDGE_CURVE('',#496,#507,#247,.T.);
#620=EDGE_CURVE('',#507,#508,#248,.T.);
#621=EDGE_CURVE('',#508,#495,#249,.T.);
#622=EDGE_CURVE('',#509,#497,#250,.T.);
#623=EDGE_CURVE('',#508,#509,#327,.T.);
#624=EDGE_CURVE('',#510,#498,#251,.T.);
#625=EDGE_CURVE('',#509,#510,#252,.T.);
#626=EDGE_CURVE('',#511,#499,#253,.T.);
#627=EDGE_CURVE('',#510,#511,#328,.T.);
#628=EDGE_CURVE('',#512,#500,#254,.T.);
#629=EDGE_CURVE('',#511,#512,#255,.T.);
#630=EDGE_CURVE('',#513,#501,#256,.T.);
#631=EDGE_CURVE('',#512,#513,#329,.T.);
#632=EDGE_CURVE('',#514,#502,#257,.T.);
#633=EDGE_CURVE('',#513,#514,#258,.T.);
#634=EDGE_CURVE('',#514,#507,#330,.T.);
#635=EDGE_CURVE('',#510,#515,#331,.T.);
#636=EDGE_CURVE('',#516,#515,#332,.T.);
#637=EDGE_CURVE('',#511,#516,#333,.T.);
#638=EDGE_CURVE('',#509,#517,#334,.T.);
#639=EDGE_CURVE('',#515,#517,#259,.T.);
#640=EDGE_CURVE('',#508,#518,#335,.T.);
#641=EDGE_CURVE('',#517,#518,#336,.T.);
#642=EDGE_CURVE('',#507,#519,#337,.T.);
#643=EDGE_CURVE('',#518,#519,#260,.T.);
#644=EDGE_CURVE('',#520,#520,#261,.T.);
#645=EDGE_CURVE('',#520,#521,#338,.T.);
#646=EDGE_CURVE('',#521,#521,#262,.T.);
#647=EDGE_CURVE('',#522,#522,#263,.T.);
#648=EDGE_CURVE('',#522,#523,#339,.T.);
#649=EDGE_CURVE('',#523,#523,#264,.T.);
#650=EDGE_CURVE('',#524,#524,#265,.T.);
#651=EDGE_CURVE('',#524,#525,#340,.T.);
#652=EDGE_CURVE('',#525,#525,#266,.T.);
#653=EDGE_CURVE('',#526,#526,#267,.T.);
#654=EDGE_CURVE('',#526,#527,#341,.T.);
#655=EDGE_CURVE('',#527,#527,#268,.T.);
#656=EDGE_CURVE('',#528,#516,#269,.T.);
#657=EDGE_CURVE('',#512,#528,#342,.T.);
#658=EDGE_CURVE('',#529,#528,#270,.T.);
#659=EDGE_CURVE('',#516,#530,#271,.T.);
#660=EDGE_CURVE('',#530,#529,#272,.T.);
#661=EDGE_CURVE('',#515,#531,#273,.T.);
#662=EDGE_CURVE('',#531,#530,#343,.T.);
#663=EDGE_CURVE('',#517,#532,#274,.T.);
#664=EDGE_CURVE('',#532,#531,#275,.T.);
#665=EDGE_CURVE('',#518,#533,#276,.T.);
#666=EDGE_CURVE('',#533,#532,#344,.T.);
#667=EDGE_CURVE('',#519,#534,#277,.T.);
#668=EDGE_CURVE('',#534,#533,#278,.T.);
#669=EDGE_CURVE('',#535,#536,#279,.T.);
#670=EDGE_CURVE('',#536,#534,#345,.T.);
#671=EDGE_CURVE('',#519,#535,#346,.T.);
#672=EDGE_CURVE('',#537,#538,#280,.T.);
#673=EDGE_CURVE('',#538,#536,#281,.T.);
#674=EDGE_CURVE('',#535,#537,#282,.T.);
#675=EDGE_CURVE('',#529,#538,#347,.T.);
#676=EDGE_CURVE('',#537,#528,#348,.T.);
#677=EDGE_CURVE('',#539,#540,#349,.T.);
#678=EDGE_CURVE('',#539,#541,#350,.T.);
#679=EDGE_CURVE('',#542,#541,#351,.T.);
#680=EDGE_CURVE('',#540,#542,#352,.T.);
#681=EDGE_CURVE('',#514,#535,#353,.T.);
#682=EDGE_CURVE('',#513,#537,#354,.T.);
#683=EDGE_CURVE('',#543,#542,#283,.T.);
#684=EDGE_CURVE('',#541,#544,#355,.T.);
#685=EDGE_CURVE('',#544,#545,#356,.T.);
#686=EDGE_CURVE('',#545,#543,#357,.T.);
#687=EDGE_CURVE('',#546,#547,#284,.T.);
#688=EDGE_CURVE('',#548,#546,#358,.T.);
#689=EDGE_CURVE('',#549,#548,#359,.T.);
#690=EDGE_CURVE('',#550,#549,#360,.T.);
#691=EDGE_CURVE('',#547,#550,#361,.T.);
#692=EDGE_CURVE('',#549,#551,#362,.T.);
#693=EDGE_CURVE('',#552,#551,#363,.T.);
#694=EDGE_CURVE('',#550,#552,#364,.T.);
#695=EDGE_CURVE('',#548,#553,#365,.T.);
#696=EDGE_CURVE('',#551,#553,#366,.T.);
#697=EDGE_CURVE('',#546,#554,#367,.T.);
#698=EDGE_CURVE('',#553,#554,#368,.T.);
#699=EDGE_CURVE('',#555,#556,#369,.T.);
#700=EDGE_CURVE('',#543,#555,#370,.T.);
#701=EDGE_CURVE('',#556,#545,#371,.T.);
#702=EDGE_CURVE('',#540,#555,#285,.T.);
#703=EDGE_CURVE('',#556,#557,#372,.T.);
#704=EDGE_CURVE('',#557,#544,#373,.T.);
#705=EDGE_CURVE('',#557,#539,#374,.T.);
#706=EDGE_CURVE('',#558,#552,#375,.T.);
#707=EDGE_CURVE('',#547,#558,#376,.T.);
#708=EDGE_CURVE('',#554,#558,#286,.T.);
#709=ORIENTED_EDGE('',*,*,#559,.T.);
#710=ORIENTED_EDGE('',*,*,#560,.T.);
#711=ORIENTED_EDGE('',*,*,#561,.T.);
#712=ORIENTED_EDGE('',*,*,#562,.F.);
#713=ORIENTED_EDGE('',*,*,#563,.T.);
#714=ORIENTED_EDGE('',*,*,#564,.T.);
#715=ORIENTED_EDGE('',*,*,#559,.F.);
#716=ORIENTED_EDGE('',*,*,#565,.F.);
#717=ORIENTED_EDGE('',*,*,#566,.T.);
#718=ORIENTED_EDGE('',*,*,#567,.T.);
#719=ORIENTED_EDGE('',*,*,#563,.F.);
#720=ORIENTED_EDGE('',*,*,#568,.F.);
#721=ORIENTED_EDGE('',*,*,#561,.F.);
#722=ORIENTED_EDGE('',*,*,#569,.T.);
#723=ORIENTED_EDGE('',*,*,#566,.F.);
#724=ORIENTED_EDGE('',*,*,#570,.F.);
#725=ORIENTED_EDGE('',*,*,#571,.F.);
#726=ORIENTED_EDGE('',*,*,#572,.F.);
#727=ORIENTED_EDGE('',*,*,#573,.F.);
#728=ORIENTED_EDGE('',*,*,#574,.F.);
#729=ORIENTED_EDGE('',*,*,#575,.F.);
#730=ORIENTED_EDGE('',*,*,#576,.F.);
#731=ORIENTED_EDGE('',*,*,#577,.F.);
#732=ORIENTED_EDGE('',*,*,#578,.F.);
#733=ORIENTED_EDGE('',*,*,#560,.F.);
#734=ORIENTED_EDGE('',*,*,#564,.F.);
#735=ORIENTED_EDGE('',*,*,#567,.F.);
#736=ORIENTED_EDGE('',*,*,#569,.F.);
#737=ORIENTED_EDGE('',*,*,#579,.T.);
#738=ORIENTED_EDGE('',*,*,#580,.T.);
#739=ORIENTED_EDGE('',*,*,#581,.T.);
#740=ORIENTED_EDGE('',*,*,#571,.T.);
#741=ORIENTED_EDGE('',*,*,#579,.F.);
#742=ORIENTED_EDGE('',*,*,#578,.T.);
#743=ORIENTED_EDGE('',*,*,#582,.T.);
#744=ORIENTED_EDGE('',*,*,#583,.T.);
#745=ORIENTED_EDGE('',*,*,#584,.T.);
#746=ORIENTED_EDGE('',*,*,#585,.T.);
#747=ORIENTED_EDGE('',*,*,#582,.F.);
#748=ORIENTED_EDGE('',*,*,#577,.T.);
#749=ORIENTED_EDGE('',*,*,#584,.F.);
#750=ORIENTED_EDGE('',*,*,#576,.T.);
#751=ORIENTED_EDGE('',*,*,#586,.T.);
#752=ORIENTED_EDGE('',*,*,#587,.T.);
#753=ORIENTED_EDGE('',*,*,#588,.T.);
#754=ORIENTED_EDGE('',*,*,#589,.T.);
#755=ORIENTED_EDGE('',*,*,#586,.F.);
#756=ORIENTED_EDGE('',*,*,#575,.T.);
#757=ORIENTED_EDGE('',*,*,#588,.F.);
#758=ORIENTED_EDGE('',*,*,#574,.T.);
#759=ORIENTED_EDGE('',*,*,#590,.T.);
#760=ORIENTED_EDGE('',*,*,#591,.T.);
#761=ORIENTED_EDGE('',*,*,#592,.T.);
#762=ORIENTED_EDGE('',*,*,#593,.T.);
#763=ORIENTED_EDGE('',*,*,#590,.F.);
#764=ORIENTED_EDGE('',*,*,#573,.T.);
#765=ORIENTED_EDGE('',*,*,#592,.F.);
#766=ORIENTED_EDGE('',*,*,#572,.T.);
#767=ORIENTED_EDGE('',*,*,#581,.F.);
#768=ORIENTED_EDGE('',*,*,#594,.T.);
#769=ORIENTED_EDGE('',*,*,#591,.F.);
#770=ORIENTED_EDGE('',*,*,#595,.F.);
#771=ORIENTED_EDGE('',*,*,#596,.T.);
#772=ORIENTED_EDGE('',*,*,#597,.F.);
#773=ORIENTED_EDGE('',*,*,#593,.F.);
#774=ORIENTED_EDGE('',*,*,#598,.T.);
#775=ORIENTED_EDGE('',*,*,#599,.T.);
#776=ORIENTED_EDGE('',*,*,#595,.T.);
#777=ORIENTED_EDGE('',*,*,#594,.F.);
#778=ORIENTED_EDGE('',*,*,#600,.F.);
#779=ORIENTED_EDGE('',*,*,#601,.T.);
#780=ORIENTED_EDGE('',*,*,#598,.F.);
#781=ORIENTED_EDGE('',*,*,#602,.F.);
#782=ORIENTED_EDGE('',*,*,#603,.F.);
#783=ORIENTED_EDGE('',*,*,#604,.F.);
#784=ORIENTED_EDGE('',*,*,#605,.F.);
#785=ORIENTED_EDGE('',*,*,#606,.F.);
#786=ORIENTED_EDGE('',*,*,#607,.F.);
#787=ORIENTED_EDGE('',*,*,#608,.F.);
#788=ORIENTED_EDGE('',*,*,#609,.F.);
#789=ORIENTED_EDGE('',*,*,#580,.F.);
#790=ORIENTED_EDGE('',*,*,#610,.T.);
#791=ORIENTED_EDGE('',*,*,#611,.T.);
#792=ORIENTED_EDGE('',*,*,#600,.T.);
#793=ORIENTED_EDGE('',*,*,#583,.F.);
#794=ORIENTED_EDGE('',*,*,#612,.F.);
#795=ORIENTED_EDGE('',*,*,#613,.T.);
#796=ORIENTED_EDGE('',*,*,#610,.F.);
#797=ORIENTED_EDGE('',*,*,#585,.F.);
#798=ORIENTED_EDGE('',*,*,#614,.T.);
#799=ORIENTED_EDGE('',*,*,#615,.T.);
#800=ORIENTED_EDGE('',*,*,#612,.T.);
#801=ORIENTED_EDGE('',*,*,#587,.F.);
#802=ORIENTED_EDGE('',*,*,#616,.F.);
#803=ORIENTED_EDGE('',*,*,#617,.T.);
#804=ORIENTED_EDGE('',*,*,#614,.F.);
#805=ORIENTED_EDGE('',*,*,#589,.F.);
#806=ORIENTED_EDGE('',*,*,#597,.T.);
#807=ORIENTED_EDGE('',*,*,#618,.T.);
#808=ORIENTED_EDGE('',*,*,#616,.T.);
#809=ORIENTED_EDGE('',*,*,#619,.T.);
#810=ORIENTED_EDGE('',*,*,#620,.T.);
#811=ORIENTED_EDGE('',*,*,#621,.T.);
#812=ORIENTED_EDGE('',*,*,#602,.T.);
#813=ORIENTED_EDGE('',*,*,#622,.T.);
#814=ORIENTED_EDGE('',*,*,#603,.T.);
#815=ORIENTED_EDGE('',*,*,#621,.F.);
#816=ORIENTED_EDGE('',*,*,#623,.T.);
#817=ORIENTED_EDGE('',*,*,#624,.T.);
#818=ORIENTED_EDGE('',*,*,#604,.T.);
#819=ORIENTED_EDGE('',*,*,#622,.F.);
#820=ORIENTED_EDGE('',*,*,#625,.T.);
#821=ORIENTED_EDGE('',*,*,#626,.T.);
#822=ORIENTED_EDGE('',*,*,#605,.T.);
#823=ORIENTED_EDGE('',*,*,#624,.F.);
#824=ORIENTED_EDGE('',*,*,#627,.T.);
#825=ORIENTED_EDGE('',*,*,#628,.T.);
#826=ORIENTED_EDGE('',*,*,#606,.T.);
#827=ORIENTED_EDGE('',*,*,#626,.F.);
#828=ORIENTED_EDGE('',*,*,#629,.T.);
#829=ORIENTED_EDGE('',*,*,#630,.T.);
#830=ORIENTED_EDGE('',*,*,#607,.T.);
#831=ORIENTED_EDGE('',*,*,#628,.F.);
#832=ORIENTED_EDGE('',*,*,#631,.T.);
#833=ORIENTED_EDGE('',*,*,#632,.T.);
#834=ORIENTED_EDGE('',*,*,#608,.T.);
#835=ORIENTED_EDGE('',*,*,#630,.F.);
#836=ORIENTED_EDGE('',*,*,#633,.T.);
#837=ORIENTED_EDGE('',*,*,#619,.F.);
#838=ORIENTED_EDGE('',*,*,#609,.T.);
#839=ORIENTED_EDGE('',*,*,#632,.F.);
#840=ORIENTED_EDGE('',*,*,#634,.T.);
#841=ORIENTED_EDGE('',*,*,#627,.F.);
#842=ORIENTED_EDGE('',*,*,#635,.T.);
#843=ORIENTED_EDGE('',*,*,#636,.F.);
#844=ORIENTED_EDGE('',*,*,#637,.F.);
#845=ORIENTED_EDGE('',*,*,#625,.F.);
#846=ORIENTED_EDGE('',*,*,#638,.T.);
#847=ORIENTED_EDGE('',*,*,#639,.F.);
#848=ORIENTED_EDGE('',*,*,#635,.F.);
#849=ORIENTED_EDGE('',*,*,#623,.F.);
#850=ORIENTED_EDGE('',*,*,#640,.T.);
#851=ORIENTED_EDGE('',*,*,#641,.F.);
#852=ORIENTED_EDGE('',*,*,#638,.F.);
#853=ORIENTED_EDGE('',*,*,#620,.F.);
#854=ORIENTED_EDGE('',*,*,#642,.T.);
#855=ORIENTED_EDGE('',*,*,#643,.F.);
#856=ORIENTED_EDGE('',*,*,#640,.F.);
#857=ORIENTED_EDGE('',*,*,#644,.F.);
#858=ORIENTED_EDGE('',*,*,#645,.T.);
#859=ORIENTED_EDGE('',*,*,#646,.T.);
#860=ORIENTED_EDGE('',*,*,#645,.F.);
#861=ORIENTED_EDGE('',*,*,#646,.F.);
#862=ORIENTED_EDGE('',*,*,#647,.F.);
#863=ORIENTED_EDGE('',*,*,#648,.T.);
#864=ORIENTED_EDGE('',*,*,#649,.T.);
#865=ORIENTED_EDGE('',*,*,#648,.F.);
#866=ORIENTED_EDGE('',*,*,#649,.F.);
#867=ORIENTED_EDGE('',*,*,#650,.F.);
#868=ORIENTED_EDGE('',*,*,#651,.T.);
#869=ORIENTED_EDGE('',*,*,#652,.T.);
#870=ORIENTED_EDGE('',*,*,#651,.F.);
#871=ORIENTED_EDGE('',*,*,#652,.F.);
#872=ORIENTED_EDGE('',*,*,#653,.F.);
#873=ORIENTED_EDGE('',*,*,#654,.T.);
#874=ORIENTED_EDGE('',*,*,#655,.T.);
#875=ORIENTED_EDGE('',*,*,#654,.F.);
#876=ORIENTED_EDGE('',*,*,#655,.F.);
#877=ORIENTED_EDGE('',*,*,#629,.F.);
#878=ORIENTED_EDGE('',*,*,#637,.T.);
#879=ORIENTED_EDGE('',*,*,#656,.F.);
#880=ORIENTED_EDGE('',*,*,#657,.F.);
#881=ORIENTED_EDGE('',*,*,#658,.T.);
#882=ORIENTED_EDGE('',*,*,#656,.T.);
#883=ORIENTED_EDGE('',*,*,#659,.T.);
#884=ORIENTED_EDGE('',*,*,#660,.T.);
#885=ORIENTED_EDGE('',*,*,#661,.T.);
#886=ORIENTED_EDGE('',*,*,#662,.T.);
#887=ORIENTED_EDGE('',*,*,#659,.F.);
#888=ORIENTED_EDGE('',*,*,#636,.T.);
#889=ORIENTED_EDGE('',*,*,#663,.T.);
#890=ORIENTED_EDGE('',*,*,#664,.T.);
#891=ORIENTED_EDGE('',*,*,#661,.F.);
#892=ORIENTED_EDGE('',*,*,#639,.T.);
#893=ORIENTED_EDGE('',*,*,#665,.T.);
#894=ORIENTED_EDGE('',*,*,#666,.T.);
#895=ORIENTED_EDGE('',*,*,#663,.F.);
#896=ORIENTED_EDGE('',*,*,#641,.T.);
#897=ORIENTED_EDGE('',*,*,#667,.T.);
#898=ORIENTED_EDGE('',*,*,#668,.T.);
#899=ORIENTED_EDGE('',*,*,#665,.F.);
#900=ORIENTED_EDGE('',*,*,#643,.T.);
#901=ORIENTED_EDGE('',*,*,#669,.T.);
#902=ORIENTED_EDGE('',*,*,#670,.T.);
#903=ORIENTED_EDGE('',*,*,#667,.F.);
#904=ORIENTED_EDGE('',*,*,#671,.T.);
#905=ORIENTED_EDGE('',*,*,#672,.T.);
#906=ORIENTED_EDGE('',*,*,#673,.T.);
#907=ORIENTED_EDGE('',*,*,#669,.F.);
#908=ORIENTED_EDGE('',*,*,#674,.T.);
#909=ORIENTED_EDGE('',*,*,#658,.F.);
#910=ORIENTED_EDGE('',*,*,#675,.T.);
#911=ORIENTED_EDGE('',*,*,#672,.F.);
#912=ORIENTED_EDGE('',*,*,#676,.T.);
#913=ORIENTED_EDGE('',*,*,#677,.F.);
#914=ORIENTED_EDGE('',*,*,#678,.T.);
#915=ORIENTED_EDGE('',*,*,#679,.F.);
#916=ORIENTED_EDGE('',*,*,#680,.F.);
#917=ORIENTED_EDGE('',*,*,#660,.F.);
#918=ORIENTED_EDGE('',*,*,#662,.F.);
#919=ORIENTED_EDGE('',*,*,#664,.F.);
#920=ORIENTED_EDGE('',*,*,#666,.F.);
#921=ORIENTED_EDGE('',*,*,#668,.F.);
#922=ORIENTED_EDGE('',*,*,#670,.F.);
#923=ORIENTED_EDGE('',*,*,#673,.F.);
#924=ORIENTED_EDGE('',*,*,#675,.F.);
#925=ORIENTED_EDGE('',*,*,#634,.F.);
#926=ORIENTED_EDGE('',*,*,#681,.T.);
#927=ORIENTED_EDGE('',*,*,#671,.F.);
#928=ORIENTED_EDGE('',*,*,#642,.F.);
#929=ORIENTED_EDGE('',*,*,#633,.F.);
#930=ORIENTED_EDGE('',*,*,#682,.T.);
#931=ORIENTED_EDGE('',*,*,#674,.F.);
#932=ORIENTED_EDGE('',*,*,#681,.F.);
#933=ORIENTED_EDGE('',*,*,#631,.F.);
#934=ORIENTED_EDGE('',*,*,#657,.T.);
#935=ORIENTED_EDGE('',*,*,#676,.F.);
#936=ORIENTED_EDGE('',*,*,#682,.F.);
#937=ORIENTED_EDGE('',*,*,#611,.F.);
#938=ORIENTED_EDGE('',*,*,#613,.F.);
#939=ORIENTED_EDGE('',*,*,#615,.F.);
#940=ORIENTED_EDGE('',*,*,#617,.F.);
#941=ORIENTED_EDGE('',*,*,#618,.F.);
#942=ORIENTED_EDGE('',*,*,#596,.F.);
#943=ORIENTED_EDGE('',*,*,#599,.F.);
#944=ORIENTED_EDGE('',*,*,#601,.F.);
#945=ORIENTED_EDGE('',*,*,#683,.T.);
#946=ORIENTED_EDGE('',*,*,#679,.T.);
#947=ORIENTED_EDGE('',*,*,#684,.T.);
#948=ORIENTED_EDGE('',*,*,#685,.T.);
#949=ORIENTED_EDGE('',*,*,#686,.T.);
#950=ORIENTED_EDGE('',*,*,#653,.T.);
#951=ORIENTED_EDGE('',*,*,#650,.T.);
#952=ORIENTED_EDGE('',*,*,#647,.T.);
#953=ORIENTED_EDGE('',*,*,#644,.T.);
#954=ORIENTED_EDGE('',*,*,#687,.F.);
#955=ORIENTED_EDGE('',*,*,#688,.F.);
#956=ORIENTED_EDGE('',*,*,#689,.F.);
#957=ORIENTED_EDGE('',*,*,#690,.F.);
#958=ORIENTED_EDGE('',*,*,#691,.F.);
#959=ORIENTED_EDGE('',*,*,#562,.T.);
#960=ORIENTED_EDGE('',*,*,#570,.T.);
#961=ORIENTED_EDGE('',*,*,#568,.T.);
#962=ORIENTED_EDGE('',*,*,#565,.T.);
#963=ORIENTED_EDGE('',*,*,#690,.T.);
#964=ORIENTED_EDGE('',*,*,#692,.T.);
#965=ORIENTED_EDGE('',*,*,#693,.F.);
#966=ORIENTED_EDGE('',*,*,#694,.F.);
#967=ORIENTED_EDGE('',*,*,#689,.T.);
#968=ORIENTED_EDGE('',*,*,#695,.T.);
#969=ORIENTED_EDGE('',*,*,#696,.F.);
#970=ORIENTED_EDGE('',*,*,#692,.F.);
#971=ORIENTED_EDGE('',*,*,#688,.T.);
#972=ORIENTED_EDGE('',*,*,#697,.T.);
#973=ORIENTED_EDGE('',*,*,#698,.F.);
#974=ORIENTED_EDGE('',*,*,#695,.F.);
#975=ORIENTED_EDGE('',*,*,#699,.F.);
#976=ORIENTED_EDGE('',*,*,#700,.F.);
#977=ORIENTED_EDGE('',*,*,#686,.F.);
#978=ORIENTED_EDGE('',*,*,#701,.F.);
#979=ORIENTED_EDGE('',*,*,#702,.F.);
#980=ORIENTED_EDGE('',*,*,#680,.T.);
#981=ORIENTED_EDGE('',*,*,#683,.F.);
#982=ORIENTED_EDGE('',*,*,#700,.T.);
#983=ORIENTED_EDGE('',*,*,#703,.F.);
#984=ORIENTED_EDGE('',*,*,#701,.T.);
#985=ORIENTED_EDGE('',*,*,#685,.F.);
#986=ORIENTED_EDGE('',*,*,#704,.F.);
#987=ORIENTED_EDGE('',*,*,#705,.F.);
#988=ORIENTED_EDGE('',*,*,#704,.T.);
#989=ORIENTED_EDGE('',*,*,#684,.F.);
#990=ORIENTED_EDGE('',*,*,#678,.F.);
#991=ORIENTED_EDGE('',*,*,#691,.T.);
#992=ORIENTED_EDGE('',*,*,#694,.T.);
#993=ORIENTED_EDGE('',*,*,#706,.F.);
#994=ORIENTED_EDGE('',*,*,#707,.F.);
#995=ORIENTED_EDGE('',*,*,#687,.T.);
#996=ORIENTED_EDGE('',*,*,#707,.T.);
#997=ORIENTED_EDGE('',*,*,#708,.F.);
#998=ORIENTED_EDGE('',*,*,#697,.F.);
#999=ORIENTED_EDGE('',*,*,#702,.T.);
#1000=ORIENTED_EDGE('',*,*,#699,.T.);
#1001=ORIENTED_EDGE('',*,*,#703,.T.);
#1002=ORIENTED_EDGE('',*,*,#705,.T.);
#1003=ORIENTED_EDGE('',*,*,#677,.T.);
#1004=ORIENTED_EDGE('',*,*,#708,.T.);
#1005=ORIENTED_EDGE('',*,*,#706,.T.);
#1006=ORIENTED_EDGE('',*,*,#693,.T.);
#1007=ORIENTED_EDGE('',*,*,#696,.T.);
#1008=ORIENTED_EDGE('',*,*,#698,.T.);
#1009=CONICAL_SURFACE('',#1083,10.5,0.785398163397447);
#1010=CONICAL_SURFACE('',#1087,10.5,0.785398163397449);
#1011=CONICAL_SURFACE('',#1096,16.794,0.785398163397448);
#1012=CONICAL_SURFACE('',#1099,6.318,0.785398163397449);
#1013=CONICAL_SURFACE('',#1102,6.318,0.785398163397448);
#1014=CONICAL_SURFACE('',#1105,6.318,0.785398163397448);
#1015=ADVANCED_FACE('',(#85),#1009,.F.);
#1016=ADVANCED_FACE('',(#86),#55,.T.);
#1017=ADVANCED_FACE('',(#87),#1010,.F.);
#1018=ADVANCED_FACE('',(#88),#56,.T.);
#1019=ADVANCED_FACE('',(#89,#45),#57,.T.);
#1020=ADVANCED_FACE('',(#90),#1011,.T.);
#1021=ADVANCED_FACE('',(#91),#58,.T.);
#1022=ADVANCED_FACE('',(#92),#1012,.T.);
#1023=ADVANCED_FACE('',(#93),#59,.T.);
#1024=ADVANCED_FACE('',(#94),#1013,.T.);
#1025=ADVANCED_FACE('',(#95),#60,.T.);
#1026=ADVANCED_FACE('',(#96),#1014,.T.);
#1027=ADVANCED_FACE('',(#97),#61,.T.);
#1028=ADVANCED_FACE('',(#98),#62,.T.);
#1029=ADVANCED_FACE('',(#99),#23,.T.);
#1030=ADVANCED_FACE('',(#100,#46),#63,.T.);
#1031=ADVANCED_FACE('',(#101),#24,.T.);
#1032=ADVANCED_FACE('',(#102),#64,.T.);
#1033=ADVANCED_FACE('',(#103),#25,.T.);
#1034=ADVANCED_FACE('',(#104),#65,.T.);
#1035=ADVANCED_FACE('',(#105),#26,.T.);
#1036=ADVANCED_FACE('',(#106),#15,.T.);
#1037=ADVANCED_FACE('',(#107),#27,.T.);
#1038=ADVANCED_FACE('',(#108),#16,.T.);
#1039=ADVANCED_FACE('',(#109),#28,.T.);
#1040=ADVANCED_FACE('',(#110),#17,.T.);
#1041=ADVANCED_FACE('',(#111),#29,.T.);
#1042=ADVANCED_FACE('',(#112),#18,.T.);
#1043=ADVANCED_FACE('',(#113),#30,.T.);
#1044=ADVANCED_FACE('',(#114),#66,.F.);
#1045=ADVANCED_FACE('',(#115),#31,.F.);
#1046=ADVANCED_FACE('',(#116),#67,.F.);
#1047=ADVANCED_FACE('',(#117),#32,.F.);
#1048=ADVANCED_FACE('',(#118),#33,.F.);
#1049=ADVANCED_FACE('',(#119),#68,.T.);
#1050=ADVANCED_FACE('',(#120),#34,.F.);
#1051=ADVANCED_FACE('',(#121),#69,.T.);
#1052=ADVANCED_FACE('',(#122),#35,.F.);
#1053=ADVANCED_FACE('',(#123),#70,.T.);
#1054=ADVANCED_FACE('',(#124),#36,.F.);
#1055=ADVANCED_FACE('',(#125),#71,.T.);
#1056=ADVANCED_FACE('',(#126),#37,.F.);
#1057=ADVANCED_FACE('',(#127),#19,.T.);
#1058=ADVANCED_FACE('',(#128),#38,.T.);
#1059=ADVANCED_FACE('',(#129),#20,.T.);
#1060=ADVANCED_FACE('',(#130),#39,.T.);
#1061=ADVANCED_FACE('',(#131),#21,.T.);
#1062=ADVANCED_FACE('',(#132),#40,.T.);
#1063=ADVANCED_FACE('',(#133),#22,.T.);
#1064=ADVANCED_FACE('',(#134),#41,.T.);
#1065=ADVANCED_FACE('',(#135,#47),#72,.T.);
#1066=ADVANCED_FACE('',(#136),#73,.F.);
#1067=ADVANCED_FACE('',(#137),#42,.F.);
#1068=ADVANCED_FACE('',(#138),#74,.F.);
#1069=ADVANCED_FACE('',(#139,#48,#49,#50,#51,#52),#75,.T.);
#1070=ADVANCED_FACE('',(#140,#53),#76,.F.);
#1071=ADVANCED_FACE('',(#141),#77,.T.);
#1072=ADVANCED_FACE('',(#142),#78,.T.);
#1073=ADVANCED_FACE('',(#143),#79,.T.);
#1074=ADVANCED_FACE('',(#144),#80,.T.);
#1075=ADVANCED_FACE('',(#145),#43,.F.);
#1076=ADVANCED_FACE('',(#146),#81,.T.);
#1077=ADVANCED_FACE('',(#147),#82,.T.);
#1078=ADVANCED_FACE('',(#148),#83,.T.);
#1079=ADVANCED_FACE('',(#149),#44,.F.);
#1080=ADVANCED_FACE('',(#150,#54),#84,.F.);
#1081=CLOSED_SHELL('',(#1015,#1016,#1017,#1018,#1019,#1020,#1021,#1022,
#1023,#1024,#1025,#1026,#1027,#1028,#1029,#1030,#1031,#1032,#1033,#1034,
#1035,#1036,#1037,#1038,#1039,#1040,#1041,#1042,#1043,#1044,#1045,#1046,
#1047,#1048,#1049,#1050,#1051,#1052,#1053,#1054,#1055,#1056,#1057,#1058,
#1059,#1060,#1061,#1062,#1063,#1064,#1065,#1066,#1067,#1068,#1069,#1070,
#1071,#1072,#1073,#1074,#1075,#1076,#1077,#1078,#1079,#1080));
#1082=AXIS2_PLACEMENT_3D('',#1553,#1209,#1210);
#1083=AXIS2_PLACEMENT_3D('',#1554,#1211,#1212);
#1084=AXIS2_PLACEMENT_3D('',#1559,#1214,#1215);
#1085=AXIS2_PLACEMENT_3D('',#1562,#1217,#1218);
#1086=AXIS2_PLACEMENT_3D('',#1563,#1219,#1220);
#1087=AXIS2_PLACEMENT_3D('',#1569,#1224,#1225);
#1088=AXIS2_PLACEMENT_3D('',#1573,#1227,#1228);
#1089=AXIS2_PLACEMENT_3D('',#1574,#1229,#1230);
#1090=AXIS2_PLACEMENT_3D('',#1575,#1231,#1232);
#1091=AXIS2_PLACEMENT_3D('',#1578,#1235,#1236);
#1092=AXIS2_PLACEMENT_3D('',#1581,#1237,#1238);
#1093=AXIS2_PLACEMENT_3D('',#1585,#1240,#1241);
#1094=AXIS2_PLACEMENT_3D('',#1589,#1243,#1244);
#1095=AXIS2_PLACEMENT_3D('',#1593,#1246,#1247);
#1096=AXIS2_PLACEMENT_3D('',#1595,#1249,#1250);
#1097=AXIS2_PLACEMENT_3D('',#1599,#1252,#1253);
#1098=AXIS2_PLACEMENT_3D('',#1601,#1255,#1256);
#1099=AXIS2_PLACEMENT_3D('',#1605,#1259,#1260);
#1100=AXIS2_PLACEMENT_3D('',#1608,#1262,#1263);
#1101=AXIS2_PLACEMENT_3D('',#1609,#1264,#1265);
#1102=AXIS2_PLACEMENT_3D('',#1613,#1268,#1269);
#1103=AXIS2_PLACEMENT_3D('',#1616,#1271,#1272);
#1104=AXIS2_PLACEMENT_3D('',#1617,#1273,#1274);
#1105=AXIS2_PLACEMENT_3D('',#1621,#1277,#1278);
#1106=AXIS2_PLACEMENT_3D('',#1624,#1280,#1281);
#1107=AXIS2_PLACEMENT_3D('',#1625,#1282,#1283);
#1108=AXIS2_PLACEMENT_3D('',#1627,#1285,#1286);
#1109=AXIS2_PLACEMENT_3D('',#1633,#1290,#1291);
#1110=AXIS2_PLACEMENT_3D('',#1636,#1293,#1294);
#1111=AXIS2_PLACEMENT_3D('',#1637,#1295,#1296);
#1112=AXIS2_PLACEMENT_3D('',#1643,#1299,#1300);
#1113=AXIS2_PLACEMENT_3D('',#1647,#1302,#1303);
#1114=AXIS2_PLACEMENT_3D('',#1651,#1305,#1306);
#1115=AXIS2_PLACEMENT_3D('',#1655,#1308,#1309);
#1116=AXIS2_PLACEMENT_3D('',#1657,#1311,#1312);
#1117=AXIS2_PLACEMENT_3D('',#1660,#1314,#1315);
#1118=AXIS2_PLACEMENT_3D('',#1661,#1316,#1317);
#1119=AXIS2_PLACEMENT_3D('',#1665,#1320,#1321);
#1120=AXIS2_PLACEMENT_3D('',#1668,#1323,#1324);
#1121=AXIS2_PLACEMENT_3D('',#1669,#1325,#1326);
#1122=AXIS2_PLACEMENT_3D('',#1673,#1329,#1330);
#1123=AXIS2_PLACEMENT_3D('',#1674,#1331,#1332);
#1124=AXIS2_PLACEMENT_3D('',#1675,#1333,#1334);
#1125=AXIS2_PLACEMENT_3D('',#1677,#1335,#1336);
#1126=AXIS2_PLACEMENT_3D('',#1679,#1337,#1338);
#1127=AXIS2_PLACEMENT_3D('',#1680,#1339,#1340);
#1128=AXIS2_PLACEMENT_3D('',#1681,#1341,#1342);
#1129=AXIS2_PLACEMENT_3D('',#1683,#1343,#1344);
#1130=AXIS2_PLACEMENT_3D('',#1685,#1346,#1347);
#1131=AXIS2_PLACEMENT_3D('',#1687,#1348,#1349);
#1132=AXIS2_PLACEMENT_3D('',#1688,#1350,#1351);
#1133=AXIS2_PLACEMENT_3D('',#1689,#1352,#1353);
#1134=AXIS2_PLACEMENT_3D('',#1691,#1354,#1355);
#1135=AXIS2_PLACEMENT_3D('',#1693,#1357,#1358);
#1136=AXIS2_PLACEMENT_3D('',#1695,#1359,#1360);
#1137=AXIS2_PLACEMENT_3D('',#1696,#1361,#1362);
#1138=AXIS2_PLACEMENT_3D('',#1697,#1363,#1364);
#1139=AXIS2_PLACEMENT_3D('',#1699,#1365,#1366);
#1140=AXIS2_PLACEMENT_3D('',#1701,#1368,#1369);
#1141=AXIS2_PLACEMENT_3D('',#1703,#1370,#1371);
#1142=AXIS2_PLACEMENT_3D('',#1704,#1372,#1373);
#1143=AXIS2_PLACEMENT_3D('',#1705,#1374,#1375);
#1144=AXIS2_PLACEMENT_3D('',#1707,#1377,#1378);
#1145=AXIS2_PLACEMENT_3D('',#1713,#1382,#1383);
#1146=AXIS2_PLACEMENT_3D('',#1716,#1385,#1386);
#1147=AXIS2_PLACEMENT_3D('',#1717,#1387,#1388);
#1148=AXIS2_PLACEMENT_3D('',#1721,#1391,#1392);
#1149=AXIS2_PLACEMENT_3D('',#1724,#1394,#1395);
#1150=AXIS2_PLACEMENT_3D('',#1725,#1396,#1397);
#1151=AXIS2_PLACEMENT_3D('',#1727,#1398,#1399);
#1152=AXIS2_PLACEMENT_3D('',#1730,#1401,#1402);
#1153=AXIS2_PLACEMENT_3D('',#1731,#1403,#1404);
#1154=AXIS2_PLACEMENT_3D('',#1732,#1405,#1406);
#1155=AXIS2_PLACEMENT_3D('',#1734,#1407,#1408);
#1156=AXIS2_PLACEMENT_3D('',#1737,#1410,#1411);
#1157=AXIS2_PLACEMENT_3D('',#1738,#1412,#1413);
#1158=AXIS2_PLACEMENT_3D('',#1739,#1414,#1415);
#1159=AXIS2_PLACEMENT_3D('',#1741,#1416,#1417);
#1160=AXIS2_PLACEMENT_3D('',#1744,#1419,#1420);
#1161=AXIS2_PLACEMENT_3D('',#1745,#1421,#1422);
#1162=AXIS2_PLACEMENT_3D('',#1746,#1423,#1424);
#1163=AXIS2_PLACEMENT_3D('',#1748,#1425,#1426);
#1164=AXIS2_PLACEMENT_3D('',#1751,#1428,#1429);
#1165=AXIS2_PLACEMENT_3D('',#1752,#1430,#1431);
#1166=AXIS2_PLACEMENT_3D('',#1753,#1432,#1433);
#1167=AXIS2_PLACEMENT_3D('',#1755,#1434,#1435);
#1168=AXIS2_PLACEMENT_3D('',#1757,#1437,#1438);
#1169=AXIS2_PLACEMENT_3D('',#1759,#1439,#1440);
#1170=AXIS2_PLACEMENT_3D('',#1761,#1441,#1442);
#1171=AXIS2_PLACEMENT_3D('',#1762,#1443,#1444);
#1172=AXIS2_PLACEMENT_3D('',#1763,#1445,#1446);
#1173=AXIS2_PLACEMENT_3D('',#1765,#1447,#1448);
#1174=AXIS2_PLACEMENT_3D('',#1767,#1450,#1451);
#1175=AXIS2_PLACEMENT_3D('',#1769,#1452,#1453);
#1176=AXIS2_PLACEMENT_3D('',#1770,#1454,#1455);
#1177=AXIS2_PLACEMENT_3D('',#1771,#1456,#1457);
#1178=AXIS2_PLACEMENT_3D('',#1773,#1458,#1459);
#1179=AXIS2_PLACEMENT_3D('',#1775,#1461,#1462);
#1180=AXIS2_PLACEMENT_3D('',#1777,#1463,#1464);
#1181=AXIS2_PLACEMENT_3D('',#1778,#1465,#1466);
#1182=AXIS2_PLACEMENT_3D('',#1779,#1467,#1468);
#1183=AXIS2_PLACEMENT_3D('',#1782,#1469,#1470);
#1184=AXIS2_PLACEMENT_3D('',#1785,#1473,#1474);
#1185=AXIS2_PLACEMENT_3D('',#1788,#1475,#1476);
#1186=AXIS2_PLACEMENT_3D('',#1789,#1477,#1478);
#1187=AXIS2_PLACEMENT_3D('',#1790,#1479,#1480);
#1188=AXIS2_PLACEMENT_3D('',#1791,#1481,#1482);
#1189=AXIS2_PLACEMENT_3D('',#1794,#1485,#1486);
#1190=AXIS2_PLACEMENT_3D('',#1803,#1491,#1492);
#1191=AXIS2_PLACEMENT_3D('',#1805,#1494,#1495);
#1192=AXIS2_PLACEMENT_3D('',#1807,#1497,#1498);
#1193=AXIS2_PLACEMENT_3D('',#1808,#1499,#1500);
#1194=AXIS2_PLACEMENT_3D('',#1810,#1501,#1502);
#1195=AXIS2_PLACEMENT_3D('',#1816,#1506,#1507);
#1196=AXIS2_PLACEMENT_3D('',#1819,#1508,#1509);
#1197=AXIS2_PLACEMENT_3D('',#1827,#1514,#1515);
#1198=AXIS2_PLACEMENT_3D('',#1833,#1519,#1520);
#1199=AXIS2_PLACEMENT_3D('',#1837,#1523,#1524);
#1200=AXIS2_PLACEMENT_3D('',#1841,#1527,#1528);
#1201=AXIS2_PLACEMENT_3D('',#1847,#1532,#1533);
#1202=AXIS2_PLACEMENT_3D('',#1848,#1534,#1535);
#1203=AXIS2_PLACEMENT_3D('',#1849,#1536,#1537);
#1204=AXIS2_PLACEMENT_3D('',#1853,#1540,#1541);
#1205=AXIS2_PLACEMENT_3D('',#1855,#1543,#1544);
#1206=AXIS2_PLACEMENT_3D('',#1859,#1547,#1548);
#1207=AXIS2_PLACEMENT_3D('',#1860,#1549,#1550);
#1208=AXIS2_PLACEMENT_3D('',#1861,#1551,#1552);
#1209=DIRECTION('axis',(0.,0.,1.));
#1210=DIRECTION('refdir',(1.,0.,0.));
#1211=DIRECTION('center_axis',(0.,0.,-1.));
#1212=DIRECTION('ref_axis',(-1.,0.,0.));
#1213=DIRECTION('',(-0.707106781186546,0.,-0.707106781186549));
#1214=DIRECTION('center_axis',(0.,0.,-1.));
#1215=DIRECTION('ref_axis',(-1.,0.,0.));
#1216=DIRECTION('',(-0.707106781186546,0.,0.707106781186549));
#1217=DIRECTION('center_axis',(0.,0.,-1.));
#1218=DIRECTION('ref_axis',(-1.,0.,0.));
#1219=DIRECTION('center_axis',(0.707106781186547,0.,-0.707106781186548));
#1220=DIRECTION('ref_axis',(-0.707106781186548,0.,-0.707106781186547));
#1221=DIRECTION('',(-0.707106781186548,0.,-0.707106781186547));
#1222=DIRECTION('',(0.,1.,0.));
#1223=DIRECTION('',(0.,1.,0.));
#1224=DIRECTION('center_axis',(0.,0.,-1.));
#1225=DIRECTION('ref_axis',(1.,0.,0.));
#1226=DIRECTION('',(0.707106781186546,-3.14018491736756E-15,-0.707106781186549));
#1227=DIRECTION('center_axis',(0.,0.,-1.));
#1228=DIRECTION('ref_axis',(1.,0.,0.));
#1229=DIRECTION('center_axis',(0.,0.,-1.));
#1230=DIRECTION('ref_axis',(1.,0.,0.));
#1231=DIRECTION('center_axis',(-0.707106781186549,0.,-0.707106781186546));
#1232=DIRECTION('ref_axis',(-0.707106781186546,0.,0.707106781186549));
#1233=DIRECTION('',(0.,-1.,0.));
#1234=DIRECTION('',(0.,-1.,0.));
#1235=DIRECTION('center_axis',(0.,0.,-1.));
#1236=DIRECTION('ref_axis',(1.,0.,0.));
#1237=DIRECTION('center_axis',(0.,0.,1.));
#1238=DIRECTION('ref_axis',(-0.707106781186548,0.707106781186547,0.));
#1239=DIRECTION('',(-1.,0.,0.));
#1240=DIRECTION('center_axis',(0.,0.,1.));
#1241=DIRECTION('ref_axis',(0.707106781186548,0.707106781186548,0.));
#1242=DIRECTION('',(0.,1.,0.));
#1243=DIRECTION('center_axis',(0.,0.,1.));
#1244=DIRECTION('ref_axis',(0.707106781186548,-0.707106781186547,0.));
#1245=DIRECTION('',(1.,4.97300346976554E-17,0.));
#1246=DIRECTION('center_axis',(0.,0.,1.));
#1247=DIRECTION('ref_axis',(-0.707106781186547,-0.707106781186548,0.));
#1248=DIRECTION('',(9.30127154361844E-17,-1.,0.));
#1249=DIRECTION('center_axis',(0.,0.,1.));
#1250=DIRECTION('ref_axis',(-0.707106781186548,0.707106781186547,0.));
#1251=DIRECTION('',(-0.707106781186547,0.,0.707106781186547));
#1252=DIRECTION('center_axis',(0.,0.,-1.));
#1253=DIRECTION('ref_axis',(-0.707106781186548,0.707106781186547,0.));
#1254=DIRECTION('',(7.85046229341889E-16,-0.707106781186546,-0.707106781186549));
#1255=DIRECTION('center_axis',(-0.707106781186548,-6.57699218215007E-17,
-0.707106781186547));
#1256=DIRECTION('ref_axis',(-0.707106781186547,0.,0.707106781186548));
#1257=DIRECTION('',(-0.707106781186547,-3.92523114670943E-16,0.707106781186547));
#1258=DIRECTION('',(-9.30127154361844E-17,1.,0.));
#1259=DIRECTION('center_axis',(0.,0.,1.));
#1260=DIRECTION('ref_axis',(-0.707106781186547,-0.707106781186548,0.));
#1261=DIRECTION('',(7.85046229341885E-16,-0.707106781186549,0.707106781186546));
#1262=DIRECTION('center_axis',(0.,0.,-1.));
#1263=DIRECTION('ref_axis',(-0.707106781186547,-0.707106781186548,0.));
#1264=DIRECTION('center_axis',(3.51644447633545E-17,-0.70710678118655,-0.707106781186545));
#1265=DIRECTION('ref_axis',(-1.,0.,-4.97300346976557E-17));
#1266=DIRECTION('',(-6.28036983473512E-15,-0.707106781186544,0.707106781186551));
#1267=DIRECTION('',(-1.,-4.97300346976554E-17,0.));
#1268=DIRECTION('center_axis',(0.,0.,1.));
#1269=DIRECTION('ref_axis',(0.707106781186548,-0.707106781186547,0.));
#1270=DIRECTION('',(0.707106781186546,0.,0.707106781186549));
#1271=DIRECTION('center_axis',(0.,0.,-1.));
#1272=DIRECTION('ref_axis',(0.707106781186548,-0.707106781186547,0.));
#1273=DIRECTION('center_axis',(0.707106781187136,0.,-0.707106781185959));
#1274=DIRECTION('ref_axis',(-0.707106781185959,0.,-0.707106781187136));
#1275=DIRECTION('',(0.707106781185959,-6.28036983474032E-15,0.707106781187136));
#1276=DIRECTION('',(0.,-1.,0.));
#1277=DIRECTION('center_axis',(0.,0.,1.));
#1278=DIRECTION('ref_axis',(0.707106781186547,0.707106781186547,0.));
#1279=DIRECTION('',(0.,0.707106781186549,0.707106781186546));
#1280=DIRECTION('center_axis',(0.,0.,-1.));
#1281=DIRECTION('ref_axis',(0.707106781186548,0.707106781186548,0.));
#1282=DIRECTION('center_axis',(0.,0.707106781187743,-0.707106781185353));
#1283=DIRECTION('ref_axis',(-1.,0.,0.));
#1284=DIRECTION('',(1.,0.,0.));
#1285=DIRECTION('center_axis',(1.,0.,0.));
#1286=DIRECTION('ref_axis',(0.,1.,0.));
#1287=DIRECTION('',(0.,0.,-1.));
#1288=DIRECTION('',(1.02118818016682E-16,-1.,0.));
#1289=DIRECTION('',(0.,0.,1.));
#1290=DIRECTION('center_axis',(0.,0.,-1.));
#1291=DIRECTION('ref_axis',(0.707106781186547,0.707106781186547,0.));
#1292=DIRECTION('',(0.,0.,1.));
#1293=DIRECTION('center_axis',(0.,0.,-1.));
#1294=DIRECTION('ref_axis',(0.707106781186547,0.707106781186547,0.));
#1295=DIRECTION('center_axis',(0.,1.,0.));
#1296=DIRECTION('ref_axis',(-1.,0.,0.));
#1297=DIRECTION('',(0.,0.,-1.));
#1298=DIRECTION('',(1.,0.,0.));
#1299=DIRECTION('center_axis',(0.,1.,0.));
#1300=DIRECTION('ref_axis',(0.707106781186548,0.,-0.707106781186547));
#1301=DIRECTION('',(0.,0.,-1.));
#1302=DIRECTION('center_axis',(0.,1.,0.));
#1303=DIRECTION('ref_axis',(0.707106781186548,0.,0.707106781186547));
#1304=DIRECTION('',(1.,0.,0.));
#1305=DIRECTION('center_axis',(0.,1.,0.));
#1306=DIRECTION('ref_axis',(-0.707106781186548,0.,0.707106781186547));
#1307=DIRECTION('',(0.,0.,1.));
#1308=DIRECTION('center_axis',(0.,1.,0.));
#1309=DIRECTION('ref_axis',(-0.707106781186547,0.,-0.707106781186548));
#1310=DIRECTION('',(-1.,0.,-1.7239487960018E-16));
#1311=DIRECTION('center_axis',(0.,0.,-1.));
#1312=DIRECTION('ref_axis',(-0.707106781186548,0.707106781186547,0.));
#1313=DIRECTION('',(0.,0.,1.));
#1314=DIRECTION('center_axis',(0.,0.,-1.));
#1315=DIRECTION('ref_axis',(-0.707106781186548,0.707106781186547,0.));
#1316=DIRECTION('center_axis',(-1.,-9.30127154361844E-17,0.));
#1317=DIRECTION('ref_axis',(9.30127154361844E-17,-1.,0.));
#1318=DIRECTION('',(0.,0.,-1.));
#1319=DIRECTION('',(0.,1.,0.));
#1320=DIRECTION('center_axis',(0.,0.,-1.));
#1321=DIRECTION('ref_axis',(-0.707106781186547,-0.707106781186548,0.));
#1322=DIRECTION('',(0.,0.,1.));
#1323=DIRECTION('center_axis',(0.,0.,-1.));
#1324=DIRECTION('ref_axis',(-0.707106781186547,-0.707106781186548,0.));
#1325=DIRECTION('center_axis',(4.97300346976554E-17,-1.,0.));
#1326=DIRECTION('ref_axis',(1.,4.97300346976554E-17,0.));
#1327=DIRECTION('',(0.,0.,-1.));
#1328=DIRECTION('',(-1.,5.10594090083419E-17,0.));
#1329=DIRECTION('center_axis',(0.,0.,-1.));
#1330=DIRECTION('ref_axis',(0.707106781186548,-0.707106781186547,0.));
#1331=DIRECTION('center_axis',(0.,0.,-1.));
#1332=DIRECTION('ref_axis',(0.707106781186548,-0.707106781186547,0.));
#1333=DIRECTION('center_axis',(0.,-1.,0.));
#1334=DIRECTION('ref_axis',(0.,0.,-1.));
#1335=DIRECTION('center_axis',(1.,0.,0.));
#1336=DIRECTION('ref_axis',(0.,1.,0.));
#1337=DIRECTION('center_axis',(0.,-1.,0.));
#1338=DIRECTION('ref_axis',(0.707106781186548,0.,-0.707106781186547));
#1339=DIRECTION('center_axis',(0.,0.,-1.));
#1340=DIRECTION('ref_axis',(-1.,0.,0.));
#1341=DIRECTION('center_axis',(0.,0.,1.));
#1342=DIRECTION('ref_axis',(-0.707106781186548,0.707106781186548,0.));
#1343=DIRECTION('center_axis',(0.,0.,-1.));
#1344=DIRECTION('ref_axis',(-1.,0.,0.));
#1345=DIRECTION('',(0.,0.,1.));
#1346=DIRECTION('center_axis',(0.,-1.,0.));
#1347=DIRECTION('ref_axis',(0.,0.,-1.));
#1348=DIRECTION('center_axis',(1.,0.,0.));
#1349=DIRECTION('ref_axis',(0.,0.,-1.));
#1350=DIRECTION('center_axis',(0.,-1.,0.));
#1351=DIRECTION('ref_axis',(0.707106781186548,0.,0.707106781186547));
#1352=DIRECTION('center_axis',(-1.,0.,0.));
#1353=DIRECTION('ref_axis',(0.,0.707106781186546,-0.707106781186549));
#1354=DIRECTION('center_axis',(1.,0.,0.));
#1355=DIRECTION('ref_axis',(0.,0.,-1.));
#1356=DIRECTION('',(-1.,0.,0.));
#1357=DIRECTION('center_axis',(0.,-1.,0.));
#1358=DIRECTION('ref_axis',(0.,0.,-1.));
#1359=DIRECTION('center_axis',(-1.11022302462516E-15,0.,1.));
#1360=DIRECTION('ref_axis',(1.,0.,1.11022302462516E-15));
#1361=DIRECTION('center_axis',(0.,-1.,0.));
#1362=DIRECTION('ref_axis',(-0.707106781186548,0.,0.707106781186547));
#1363=DIRECTION('center_axis',(0.,0.,-1.));
#1364=DIRECTION('ref_axis',(0.707106781186548,0.707106781186548,0.));
#1365=DIRECTION('center_axis',(0.,0.,1.));
#1366=DIRECTION('ref_axis',(1.,0.,0.));
#1367=DIRECTION('',(0.,0.,-1.));
#1368=DIRECTION('center_axis',(0.,-1.,0.));
#1369=DIRECTION('ref_axis',(0.,0.,-1.));
#1370=DIRECTION('center_axis',(-1.,0.,0.));
#1371=DIRECTION('ref_axis',(0.,0.,1.));
#1372=DIRECTION('center_axis',(0.,-1.,0.));
#1373=DIRECTION('ref_axis',(-0.707106781186547,0.,-0.707106781186548));
#1374=DIRECTION('center_axis',(1.,0.,1.7239487960018E-16));
#1375=DIRECTION('ref_axis',(0.,0.707106781186546,0.707106781186549));
#1376=DIRECTION('',(1.,0.,1.7239487960018E-16));
#1377=DIRECTION('center_axis',(0.,0.,1.));
#1378=DIRECTION('ref_axis',(-1.,0.,0.));
#1379=DIRECTION('',(0.,-1.,0.));
#1380=DIRECTION('',(1.,0.,0.));
#1381=DIRECTION('',(0.,-1.,0.));
#1382=DIRECTION('center_axis',(0.,-1.,0.));
#1383=DIRECTION('ref_axis',(0.,0.,1.));
#1384=DIRECTION('',(0.,-1.,0.));
#1385=DIRECTION('center_axis',(0.,1.,0.));
#1386=DIRECTION('ref_axis',(0.707106781186548,0.,0.707106781186547));
#1387=DIRECTION('center_axis',(1.,0.,0.));
#1388=DIRECTION('ref_axis',(0.,0.,1.));
#1389=DIRECTION('',(0.,-1.,0.));
#1390=DIRECTION('',(0.,0.,-1.));
#1391=DIRECTION('center_axis',(0.,-1.,0.));
#1392=DIRECTION('ref_axis',(1.,0.,-6.83214169000096E-16));
#1393=DIRECTION('',(0.,-1.,0.));
#1394=DIRECTION('center_axis',(0.,1.,0.));
#1395=DIRECTION('ref_axis',(0.707106781186548,0.,-0.707106781186547));
#1396=DIRECTION('center_axis',(0.,0.,-1.));
#1397=DIRECTION('ref_axis',(-1.,0.,0.));
#1398=DIRECTION('center_axis',(0.,0.,-1.));
#1399=DIRECTION('ref_axis',(-1.,0.,0.));
#1400=DIRECTION('',(0.,0.,-1.));
#1401=DIRECTION('center_axis',(0.,0.,-1.));
#1402=DIRECTION('ref_axis',(-1.,0.,0.));
#1403=DIRECTION('center_axis',(0.,0.,1.));
#1404=DIRECTION('ref_axis',(-1.,0.,0.));
#1405=DIRECTION('center_axis',(0.,0.,-1.));
#1406=DIRECTION('ref_axis',(-1.,0.,0.));
#1407=DIRECTION('center_axis',(0.,0.,-1.));
#1408=DIRECTION('ref_axis',(-1.,0.,0.));
#1409=DIRECTION('',(0.,0.,-1.));
#1410=DIRECTION('center_axis',(0.,0.,-1.));
#1411=DIRECTION('ref_axis',(-1.,0.,0.));
#1412=DIRECTION('center_axis',(0.,0.,1.));
#1413=DIRECTION('ref_axis',(-1.,0.,0.));
#1414=DIRECTION('center_axis',(0.,0.,-1.));
#1415=DIRECTION('ref_axis',(-1.,0.,0.));
#1416=DIRECTION('center_axis',(0.,0.,-1.));
#1417=DIRECTION('ref_axis',(-1.,0.,0.));
#1418=DIRECTION('',(0.,0.,-1.));
#1419=DIRECTION('center_axis',(0.,0.,-1.));
#1420=DIRECTION('ref_axis',(-1.,0.,0.));
#1421=DIRECTION('center_axis',(0.,0.,1.));
#1422=DIRECTION('ref_axis',(-1.,0.,0.));
#1423=DIRECTION('center_axis',(0.,0.,-1.));
#1424=DIRECTION('ref_axis',(-1.,0.,0.));
#1425=DIRECTION('center_axis',(0.,0.,-1.));
#1426=DIRECTION('ref_axis',(-1.,0.,0.));
#1427=DIRECTION('',(0.,0.,-1.));
#1428=DIRECTION('center_axis',(0.,0.,-1.));
#1429=DIRECTION('ref_axis',(-1.,0.,0.));
#1430=DIRECTION('center_axis',(0.,0.,1.));
#1431=DIRECTION('ref_axis',(-1.,0.,0.));
#1432=DIRECTION('center_axis',(0.,-1.,0.));
#1433=DIRECTION('ref_axis',(-1.,0.,0.));
#1434=DIRECTION('center_axis',(0.,1.,0.));
#1435=DIRECTION('ref_axis',(-0.707106781186548,0.,0.707106781186547));
#1436=DIRECTION('',(0.,-1.,0.));
#1437=DIRECTION('center_axis',(0.,1.,0.));
#1438=DIRECTION('ref_axis',(0.,0.,1.));
#1439=DIRECTION('center_axis',(-1.11022302462516E-15,0.,1.));
#1440=DIRECTION('ref_axis',(0.,-1.,0.));
#1441=DIRECTION('center_axis',(-1.,0.,0.));
#1442=DIRECTION('ref_axis',(0.,0.,-1.));
#1443=DIRECTION('center_axis',(0.,-1.,0.));
#1444=DIRECTION('ref_axis',(-0.707106781186548,0.,0.707106781186547));
#1445=DIRECTION('center_axis',(1.,0.,0.));
#1446=DIRECTION('ref_axis',(0.,-0.707106781186546,-0.707106781186549));
#1447=DIRECTION('center_axis',(-1.,0.,0.));
#1448=DIRECTION('ref_axis',(0.,0.,-1.));
#1449=DIRECTION('',(-1.,0.,0.));
#1450=DIRECTION('center_axis',(0.,1.,0.));
#1451=DIRECTION('ref_axis',(0.,0.,1.));
#1452=DIRECTION('center_axis',(0.,0.,1.));
#1453=DIRECTION('ref_axis',(-1.,0.,0.));
#1454=DIRECTION('center_axis',(0.,-1.,0.));
#1455=DIRECTION('ref_axis',(0.707106781186548,0.,0.707106781186547));
#1456=DIRECTION('center_axis',(0.,0.,-1.));
#1457=DIRECTION('ref_axis',(-0.707106781186548,-0.707106781186548,0.));
#1458=DIRECTION('center_axis',(0.,0.,1.));
#1459=DIRECTION('ref_axis',(-1.,0.,0.));
#1460=DIRECTION('',(0.,0.,1.));
#1461=DIRECTION('center_axis',(0.,1.,0.));
#1462=DIRECTION('ref_axis',(0.,0.,1.));
#1463=DIRECTION('center_axis',(1.,0.,0.));
#1464=DIRECTION('ref_axis',(0.,0.,1.));
#1465=DIRECTION('center_axis',(0.,-1.,0.));
#1466=DIRECTION('ref_axis',(0.707106781186548,0.,-0.707106781186547));
#1467=DIRECTION('center_axis',(-1.,0.,-1.7239487960018E-16));
#1468=DIRECTION('ref_axis',(0.,-0.707106781186546,0.707106781186549));
#1469=DIRECTION('center_axis',(1.,0.,0.));
#1470=DIRECTION('ref_axis',(0.,0.,1.));
#1471=DIRECTION('',(1.,0.,1.7239487960018E-16));
#1472=DIRECTION('',(-1.,0.,-1.7239487960018E-16));
#1473=DIRECTION('center_axis',(0.,1.,0.));
#1474=DIRECTION('ref_axis',(0.,0.,1.));
#1475=DIRECTION('center_axis',(0.,0.,-1.));
#1476=DIRECTION('ref_axis',(1.,0.,0.));
#1477=DIRECTION('center_axis',(0.,-1.,0.));
#1478=DIRECTION('ref_axis',(-0.707106781186547,0.,-0.707106781186548));
#1479=DIRECTION('center_axis',(0.,1.,0.));
#1480=DIRECTION('ref_axis',(-0.707106781186547,0.,-0.707106781186548));
#1481=DIRECTION('center_axis',(0.,0.,1.));
#1482=DIRECTION('ref_axis',(0.707106781186548,-0.707106781186548,0.));
#1483=DIRECTION('',(0.,0.,-1.));
#1484=DIRECTION('',(0.,0.,1.));
#1485=DIRECTION('center_axis',(0.,-1.,0.));
#1486=DIRECTION('ref_axis',(1.,0.,0.));
#1487=DIRECTION('',(-1.,1.48820344685721E-16,0.));
#1488=DIRECTION('',(0.,0.,1.));
#1489=DIRECTION('',(1.,0.,0.));
#1490=DIRECTION('',(0.,0.,1.));
#1491=DIRECTION('center_axis',(1.7239487960018E-16,0.,-1.));
#1492=DIRECTION('ref_axis',(1.,0.,1.7239487960018E-16));
#1493=DIRECTION('',(0.,-1.,0.));
#1494=DIRECTION('center_axis',(0.,-1.,0.));
#1495=DIRECTION('ref_axis',(0.,0.,-1.));
#1496=DIRECTION('',(0.,-1.,0.));
#1497=DIRECTION('center_axis',(-1.,0.,0.));
#1498=DIRECTION('ref_axis',(0.,0.,-1.));
#1499=DIRECTION('center_axis',(0.,0.,1.));
#1500=DIRECTION('ref_axis',(1.,0.,0.));
#1501=DIRECTION('center_axis',(0.,0.,-1.));
#1502=DIRECTION('ref_axis',(-3.25477507550436E-8,1.,0.));
#1503=DIRECTION('',(0.,-1.,0.));
#1504=DIRECTION('',(-1.,0.,0.));
#1505=DIRECTION('',(-9.06873975502798E-17,1.,0.));
#1506=DIRECTION('center_axis',(0.,0.,-1.));
#1507=DIRECTION('ref_axis',(1.,0.,0.));
#1508=DIRECTION('center_axis',(0.,0.,-1.));
#1509=DIRECTION('ref_axis',(-0.999999999999999,3.1877976734959E-8,0.));
#1510=DIRECTION('',(5.00783515620142E-14,1.,0.));
#1511=DIRECTION('',(-1.,0.,0.));
#1512=DIRECTION('',(0.,-1.,0.));
#1513=DIRECTION('',(1.,-1.5532686319804E-16,0.));
#1514=DIRECTION('center_axis',(-1.,0.,0.));
#1515=DIRECTION('ref_axis',(0.,-1.,0.));
#1516=DIRECTION('',(0.,0.,1.));
#1517=DIRECTION('',(0.,-1.,0.));
#1518=DIRECTION('',(0.,0.,1.));
#1519=DIRECTION('center_axis',(0.,1.,0.));
#1520=DIRECTION('ref_axis',(-1.,0.,0.));
#1521=DIRECTION('',(0.,0.,1.));
#1522=DIRECTION('',(-1.,0.,0.));
#1523=DIRECTION('center_axis',(1.,-5.00783515620142E-14,0.));
#1524=DIRECTION('ref_axis',(5.00783515620142E-14,1.,0.));
#1525=DIRECTION('',(0.,0.,1.));
#1526=DIRECTION('',(5.00783515620142E-14,1.,0.));
#1527=DIRECTION('center_axis',(1.,9.06873975502798E-17,0.));
#1528=DIRECTION('ref_axis',(-9.06873975502798E-17,1.,0.));
#1529=DIRECTION('',(-5.01152510770162E-14,-1.,0.));
#1530=DIRECTION('',(0.,0.,-1.));
#1531=DIRECTION('',(0.,0.,1.));
#1532=DIRECTION('center_axis',(0.,0.,1.));
#1533=DIRECTION('ref_axis',(-3.25477507550436E-8,1.,0.));
#1534=DIRECTION('center_axis',(0.,0.,1.));
#1535=DIRECTION('ref_axis',(-1.,3.1877975810638E-8,0.));
#1536=DIRECTION('center_axis',(0.,1.,0.));
#1537=DIRECTION('ref_axis',(-1.,0.,0.));
#1538=DIRECTION('',(1.,0.,0.));
#1539=DIRECTION('',(0.,0.,1.));
#1540=DIRECTION('center_axis',(-1.,0.,0.));
#1541=DIRECTION('ref_axis',(0.,-1.,0.));
#1542=DIRECTION('',(0.,1.,0.));
#1543=DIRECTION('center_axis',(-1.5532686319804E-16,-1.,0.));
#1544=DIRECTION('ref_axis',(1.,-1.5532686319804E-16,0.));
#1545=DIRECTION('',(1.,-1.5532686319804E-16,0.));
#1546=DIRECTION('',(0.,0.,1.));
#1547=DIRECTION('center_axis',(0.,0.,1.));
#1548=DIRECTION('ref_axis',(-0.999999999999999,3.1877976734959E-8,0.));
#1549=DIRECTION('center_axis',(0.,0.,-1.));
#1550=DIRECTION('ref_axis',(-0.999999999999999,3.1877976734959E-8,0.));
#1551=DIRECTION('center_axis',(0.,0.,-1.));
#1552=DIRECTION('ref_axis',(1.,0.,0.));
#1553=CARTESIAN_POINT('',(0.,0.,0.));
#1554=CARTESIAN_POINT('Origin',(33.3375000000001,43.3375,-6.5));
#1555=CARTESIAN_POINT('',(23.3375000000001,43.3375,-6.));
#1556=CARTESIAN_POINT('',(22.3375000000001,43.3375,-7.));
#1557=CARTESIAN_POINT('',(23.3375000000001,43.3375,-6.));
#1558=CARTESIAN_POINT('',(44.3375,43.3375,-7.));
#1559=CARTESIAN_POINT('Origin',(33.3375000000001,43.3375,-7.));
#1560=CARTESIAN_POINT('',(43.3375000000001,43.3375,-6.));
#1561=CARTESIAN_POINT('',(44.3375,43.3375,-7.));
#1562=CARTESIAN_POINT('Origin',(33.3375000000001,43.3375,-6.));
#1563=CARTESIAN_POINT('Origin',(22.8375000000001,28.3375,-6.5));
#1564=CARTESIAN_POINT('',(23.3375000000001,23.3375,-6.));
#1565=CARTESIAN_POINT('',(22.3375000000001,23.3375,-7.));
#1566=CARTESIAN_POINT('',(23.3375000000001,23.3375,-6.));
#1567=CARTESIAN_POINT('',(22.3375000000001,28.3375,-7.));
#1568=CARTESIAN_POINT('',(23.3375000000001,23.3375,-6.));
#1569=CARTESIAN_POINT('Origin',(33.3375000000001,23.3375,-6.5));
#1570=CARTESIAN_POINT('',(43.3375000000001,23.3375,-6.));
#1571=CARTESIAN_POINT('',(44.3375,23.3375,-7.));
#1572=CARTESIAN_POINT('',(43.3375000000001,23.3375,-6.));
#1573=CARTESIAN_POINT('Origin',(33.3375000000001,23.3375,-7.));
#1574=CARTESIAN_POINT('Origin',(33.3375000000001,23.3375,-6.));
#1575=CARTESIAN_POINT('Origin',(43.8375000000001,38.3375,-6.5));
#1576=CARTESIAN_POINT('',(44.3375,38.3375,-7.));
#1577=CARTESIAN_POINT('',(43.3375000000001,43.3375,-6.));
#1578=CARTESIAN_POINT('Origin',(33.3375,33.3375,-7.));
#1579=CARTESIAN_POINT('',(7.144,75.825,-7.));
#1580=CARTESIAN_POINT('',(-9.15,59.531,-7.));
#1581=CARTESIAN_POINT('Origin',(7.144,59.531,-7.));
#1582=CARTESIAN_POINT('',(70.007,75.825,-7.));
#1583=CARTESIAN_POINT('',(50.08125,75.8250000000034,-7.));
#1584=CARTESIAN_POINT('',(75.8250000000017,70.007,-7.));
#1585=CARTESIAN_POINT('Origin',(70.007,70.007,-7.));
#1586=CARTESIAN_POINT('',(75.825,-3.332,-7.));
#1587=CARTESIAN_POINT('',(75.8250000000017,16.59375,-7.));
#1588=CARTESIAN_POINT('',(70.007,-9.15000000000001,-7.));
#1589=CARTESIAN_POINT('Origin',(70.007,-3.332,-7.));
#1590=CARTESIAN_POINT('',(-3.332,-9.15,-7.));
#1591=CARTESIAN_POINT('',(16.59375,-9.15000000000001,-7.));
#1592=CARTESIAN_POINT('',(-9.15,-3.332,-7.));
#1593=CARTESIAN_POINT('Origin',(-3.332,-3.332,-7.));
#1594=CARTESIAN_POINT('',(-9.15,46.434375,-7.));
#1595=CARTESIAN_POINT('Origin',(7.144,59.531,-6.5));
#1596=CARTESIAN_POINT('',(-10.15,59.531,-6.));
#1597=CARTESIAN_POINT('',(-9.15,59.531,-7.));
#1598=CARTESIAN_POINT('',(7.144,76.825,-6.));
#1599=CARTESIAN_POINT('Origin',(7.144,59.531,-6.));
#1600=CARTESIAN_POINT('',(7.144,76.825,-6.));
#1601=CARTESIAN_POINT('Origin',(-9.65,46.434375,-6.5));
#1602=CARTESIAN_POINT('',(-10.15,-3.332,-6.));
#1603=CARTESIAN_POINT('',(-9.15,-3.332,-7.));
#1604=CARTESIAN_POINT('',(-10.15,46.434375,-6.));
#1605=CARTESIAN_POINT('Origin',(-3.332,-3.332,-6.5));
#1606=CARTESIAN_POINT('',(-3.332,-10.15,-6.));
#1607=CARTESIAN_POINT('',(-3.332,-9.15,-7.));
#1608=CARTESIAN_POINT('Origin',(-3.332,-3.332,-6.));
#1609=CARTESIAN_POINT('Origin',(16.59375,-9.65,-6.5));
#1610=CARTESIAN_POINT('',(70.007,-10.15,-6.));
#1611=CARTESIAN_POINT('',(70.007,-9.15000000000001,-7.));
#1612=CARTESIAN_POINT('',(16.59375,-10.15,-6.));
#1613=CARTESIAN_POINT('Origin',(70.007,-3.332,-6.5));
#1614=CARTESIAN_POINT('',(76.825,-3.332,-6.));
#1615=CARTESIAN_POINT('',(75.825,-3.332,-7.));
#1616=CARTESIAN_POINT('Origin',(70.007,-3.332,-6.));
#1617=CARTESIAN_POINT('Origin',(76.3250000000008,16.59375,-6.5));
#1618=CARTESIAN_POINT('',(76.825,70.007,-6.));
#1619=CARTESIAN_POINT('',(75.8250000000017,70.007,-7.));
#1620=CARTESIAN_POINT('',(76.825,16.59375,-6.));
#1621=CARTESIAN_POINT('Origin',(70.007,70.007,-6.5));
#1622=CARTESIAN_POINT('',(70.007,76.825,-6.));
#1623=CARTESIAN_POINT('',(70.007,75.825,-7.));
#1624=CARTESIAN_POINT('Origin',(70.007,70.007,-6.));
#1625=CARTESIAN_POINT('Origin',(50.08125,76.3250000000017,-6.5));
#1626=CARTESIAN_POINT('',(50.08125,76.825,-6.));
#1627=CARTESIAN_POINT('Origin',(76.825,-0.150000000000006,0.));
#1628=CARTESIAN_POINT('',(76.8250000000017,70.007,13.));
#1629=CARTESIAN_POINT('',(76.825,70.007,0.));
#1630=CARTESIAN_POINT('',(76.8250000000017,-3.332,13.));
#1631=CARTESIAN_POINT('',(76.8250000000017,76.8250000000034,13.));
#1632=CARTESIAN_POINT('',(76.825,-3.332,0.));
#1633=CARTESIAN_POINT('Origin',(70.007,70.007,0.));
#1634=CARTESIAN_POINT('',(70.007,76.8250000000034,13.));
#1635=CARTESIAN_POINT('',(70.007,76.825,0.));
#1636=CARTESIAN_POINT('Origin',(70.007,70.007,13.));
#1637=CARTESIAN_POINT('Origin',(66.825,76.825,0.));
#1638=CARTESIAN_POINT('',(7.144,76.8250000000034,13.));
#1639=CARTESIAN_POINT('',(7.144,76.825,0.));
#1640=CARTESIAN_POINT('',(-10.15,76.8250000000034,13.));
#1641=CARTESIAN_POINT('',(59.38125,76.825,6.58));
#1642=CARTESIAN_POINT('',(55.13125,76.825,2.33));
#1643=CARTESIAN_POINT('Origin',(55.13125,76.825,6.58));
#1644=CARTESIAN_POINT('',(59.38125,76.825,7.29));
#1645=CARTESIAN_POINT('',(59.38125,76.825,3.29));
#1646=CARTESIAN_POINT('',(55.13125,76.825,11.54));
#1647=CARTESIAN_POINT('Origin',(55.13125,76.825,7.29));
#1648=CARTESIAN_POINT('',(48.69125,76.825,11.54));
#1649=CARTESIAN_POINT('',(60.978125,76.825,11.54));
#1650=CARTESIAN_POINT('',(44.44125,76.825,7.29));
#1651=CARTESIAN_POINT('Origin',(48.69125,76.825,7.29));
#1652=CARTESIAN_POINT('',(44.44125,76.825,6.58));
#1653=CARTESIAN_POINT('',(44.44125,76.825,3.645));
#1654=CARTESIAN_POINT('',(48.69125,76.825,2.33));
#1655=CARTESIAN_POINT('Origin',(48.69125,76.825,6.58));
#1656=CARTESIAN_POINT('',(57.758125,76.825,2.33));
#1657=CARTESIAN_POINT('Origin',(7.144,59.531,0.));
#1658=CARTESIAN_POINT('',(-10.15,59.531,13.));
#1659=CARTESIAN_POINT('',(-10.15,59.531,0.));
#1660=CARTESIAN_POINT('Origin',(7.144,59.531,13.));
#1661=CARTESIAN_POINT('Origin',(-10.15,59.53125,0.));
#1662=CARTESIAN_POINT('',(-10.15,-3.332,13.));
#1663=CARTESIAN_POINT('',(-10.15,-3.332,0.));
#1664=CARTESIAN_POINT('',(-10.15,-10.15,13.));
#1665=CARTESIAN_POINT('Origin',(-3.332,-3.332,0.));
#1666=CARTESIAN_POINT('',(-3.33199999999999,-10.15,13.));
#1667=CARTESIAN_POINT('',(-3.332,-10.15,0.));
#1668=CARTESIAN_POINT('Origin',(-3.332,-3.332,13.));
#1669=CARTESIAN_POINT('Origin',(-0.149999999999997,-10.15,0.));
#1670=CARTESIAN_POINT('',(70.007,-10.15,13.));
#1671=CARTESIAN_POINT('',(70.007,-10.15,0.));
#1672=CARTESIAN_POINT('',(76.8250000000017,-10.15,13.));
#1673=CARTESIAN_POINT('Origin',(70.007,-3.332,0.));
#1674=CARTESIAN_POINT('Origin',(70.007,-3.332,13.));
#1675=CARTESIAN_POINT('Origin',(55.13125,75.825,6.58));
#1676=CARTESIAN_POINT('',(55.13125,75.825,3.33));
#1677=CARTESIAN_POINT('Origin',(55.13125,75.825,2.33));
#1678=CARTESIAN_POINT('',(58.38125,75.825,6.58));
#1679=CARTESIAN_POINT('Origin',(55.13125,75.825,6.58));
#1680=CARTESIAN_POINT('Origin',(59.38125,75.825,6.58));
#1681=CARTESIAN_POINT('Origin',(59.38125,75.825,3.29));
#1682=CARTESIAN_POINT('',(58.38125,75.825,7.29));
#1683=CARTESIAN_POINT('Origin',(59.38125,75.825,7.29));
#1684=CARTESIAN_POINT('',(58.38125,75.825,3.29));
#1685=CARTESIAN_POINT('Origin',(55.13125,75.825,7.29));
#1686=CARTESIAN_POINT('',(55.13125,75.825,10.54));
#1687=CARTESIAN_POINT('Origin',(55.13125,75.825,11.54));
#1688=CARTESIAN_POINT('Origin',(55.13125,75.825,7.29));
#1689=CARTESIAN_POINT('Origin',(60.978125,75.825,11.54));
#1690=CARTESIAN_POINT('',(48.69125,75.825,10.54));
#1691=CARTESIAN_POINT('Origin',(48.69125,75.825,11.54));
#1692=CARTESIAN_POINT('',(60.978125,75.825,10.54));
#1693=CARTESIAN_POINT('Origin',(48.69125,75.825,7.29));
#1694=CARTESIAN_POINT('',(45.44125,75.825,7.29));
#1695=CARTESIAN_POINT('Origin',(44.44125,75.825,7.29));
#1696=CARTESIAN_POINT('Origin',(48.69125,75.825,7.29));
#1697=CARTESIAN_POINT('Origin',(44.44125,75.825,3.645));
#1698=CARTESIAN_POINT('',(45.44125,75.825,6.58));
#1699=CARTESIAN_POINT('Origin',(44.44125,75.825,6.58));
#1700=CARTESIAN_POINT('',(45.44125,75.825,3.645));
#1701=CARTESIAN_POINT('Origin',(48.69125,75.825,6.58));
#1702=CARTESIAN_POINT('',(48.69125,75.825,3.33));
#1703=CARTESIAN_POINT('Origin',(48.69125,75.825,2.33));
#1704=CARTESIAN_POINT('Origin',(48.69125,75.825,6.58));
#1705=CARTESIAN_POINT('Origin',(57.758125,75.825,2.33));
#1706=CARTESIAN_POINT('',(57.758125,75.825,3.33));
#1707=CARTESIAN_POINT('Origin',(55.13125,76.825,10.54));
#1708=CARTESIAN_POINT('',(55.13125,67.825,10.54));
#1709=CARTESIAN_POINT('',(55.13125,76.825,10.54));
#1710=CARTESIAN_POINT('',(48.69125,67.825,10.54));
#1711=CARTESIAN_POINT('',(31.1374999975589,67.825,10.54));
#1712=CARTESIAN_POINT('',(48.69125,76.825,10.54));
#1713=CARTESIAN_POINT('Origin',(55.13125,76.825,7.29));
#1714=CARTESIAN_POINT('',(58.38125,67.825,7.29));
#1715=CARTESIAN_POINT('',(58.38125,76.825,7.29));
#1716=CARTESIAN_POINT('Origin',(55.13125,67.825,7.29));
#1717=CARTESIAN_POINT('Origin',(58.38125,76.825,6.58));
#1718=CARTESIAN_POINT('',(58.38125,67.825,6.58));
#1719=CARTESIAN_POINT('',(58.38125,76.825,6.58));
#1720=CARTESIAN_POINT('',(58.38125,67.825,3.29));
#1721=CARTESIAN_POINT('Origin',(55.13125,76.825,6.58));
#1722=CARTESIAN_POINT('',(55.13125,67.825,3.33));
#1723=CARTESIAN_POINT('',(55.13125,76.825,3.33));
#1724=CARTESIAN_POINT('Origin',(55.13125,67.825,6.58));
#1725=CARTESIAN_POINT('Origin',(70.0069805153395,70.0069805153395,14.0375197136));
#1726=CARTESIAN_POINT('',(71.3569805153395,70.0069805153395,13.));
#1727=CARTESIAN_POINT('Origin',(70.0069805153395,70.0069805153395,13.));
#1728=CARTESIAN_POINT('',(71.3569805153395,70.0069805153395,-5.9624802864));
#1729=CARTESIAN_POINT('',(71.3569805153395,70.0069805153395,14.0375197136));
#1730=CARTESIAN_POINT('Origin',(70.0069805153395,70.0069805153395,-5.9624802864));
#1731=CARTESIAN_POINT('Origin',(70.0069805153395,70.0069805153395,-5.9624802864));
#1732=CARTESIAN_POINT('Origin',(70.0069805153395,-3.33198051533946,14.0375197136));
#1733=CARTESIAN_POINT('',(71.3569805153395,-3.33198051533946,13.));
#1734=CARTESIAN_POINT('Origin',(70.0069805153395,-3.33198051533946,13.));
#1735=CARTESIAN_POINT('',(71.3569805153395,-3.33198051533946,-5.9624802864));
#1736=CARTESIAN_POINT('',(71.3569805153395,-3.33198051533946,14.0375197136));
#1737=CARTESIAN_POINT('Origin',(70.0069805153395,-3.33198051533946,-5.9624802864));
#1738=CARTESIAN_POINT('Origin',(70.0069805153395,-3.33198051533946,-5.9624802864));
#1739=CARTESIAN_POINT('Origin',(-1.19569056538756,67.8706904996459,14.0375197136));
#1740=CARTESIAN_POINT('',(0.154309434612439,67.8706904996459,13.));
#1741=CARTESIAN_POINT('Origin',(-1.19569056538756,67.8706904996459,13.));
#1742=CARTESIAN_POINT('',(0.154309434612439,67.8706904996459,-5.9624802864));
#1743=CARTESIAN_POINT('',(0.154309434612439,67.8706904996459,14.0375197136));
#1744=CARTESIAN_POINT('Origin',(-1.19569056538756,67.8706904996459,-5.9624802864));
#1745=CARTESIAN_POINT('Origin',(-1.19569056538756,67.8706904996459,-5.9624802864));
#1746=CARTESIAN_POINT('Origin',(-3.33198051533946,-3.33198051533946,14.0375197136));
#1747=CARTESIAN_POINT('',(-1.98198051533946,-3.33198051533946,13.));
#1748=CARTESIAN_POINT('Origin',(-3.33198051533946,-3.33198051533946,13.));
#1749=CARTESIAN_POINT('',(-1.98198051533946,-3.33198051533946,-5.9624802864));
#1750=CARTESIAN_POINT('',(-1.98198051533946,-3.33198051533946,14.0375197136));
#1751=CARTESIAN_POINT('Origin',(-3.33198051533946,-3.33198051533946,-5.9624802864));
#1752=CARTESIAN_POINT('Origin',(-3.33198051533946,-3.33198051533946,-5.9624802864));
#1753=CARTESIAN_POINT('Origin',(48.69125,76.825,7.29));
#1754=CARTESIAN_POINT('',(45.44125,67.825,7.29));
#1755=CARTESIAN_POINT('Origin',(48.69125,67.825,7.29));
#1756=CARTESIAN_POINT('',(45.44125,76.825,7.29));
#1757=CARTESIAN_POINT('Origin',(48.69125,67.825,7.29));
#1758=CARTESIAN_POINT('',(44.44125,66.825,7.29));
#1759=CARTESIAN_POINT('Origin',(44.44125,67.825,7.29));
#1760=CARTESIAN_POINT('',(48.69125,66.825,11.54));
#1761=CARTESIAN_POINT('Origin',(48.69125,67.825,11.54));
#1762=CARTESIAN_POINT('Origin',(48.69125,66.825,7.29));
#1763=CARTESIAN_POINT('Origin',(31.1374999975589,67.825,11.54));
#1764=CARTESIAN_POINT('',(55.13125,66.825,11.54));
#1765=CARTESIAN_POINT('Origin',(55.13125,67.825,11.54));
#1766=CARTESIAN_POINT('',(31.1374999975589,66.825,11.54));
#1767=CARTESIAN_POINT('Origin',(55.13125,67.825,7.29));
#1768=CARTESIAN_POINT('',(59.38125,66.825,7.29));
#1769=CARTESIAN_POINT('Origin',(59.38125,67.825,7.29));
#1770=CARTESIAN_POINT('Origin',(55.13125,66.825,7.29));
#1771=CARTESIAN_POINT('Origin',(59.38125,67.825,3.29));
#1772=CARTESIAN_POINT('',(59.38125,66.825,6.58));
#1773=CARTESIAN_POINT('Origin',(59.38125,67.825,6.58));
#1774=CARTESIAN_POINT('',(59.38125,66.825,3.29));
#1775=CARTESIAN_POINT('Origin',(55.13125,67.825,6.58));
#1776=CARTESIAN_POINT('',(55.13125,66.825,2.33));
#1777=CARTESIAN_POINT('Origin',(55.13125,67.825,2.33));
#1778=CARTESIAN_POINT('Origin',(55.13125,66.825,6.58));
#1779=CARTESIAN_POINT('Origin',(27.9174999975589,67.825,2.33));
#1780=CARTESIAN_POINT('',(48.69125,67.825,3.33));
#1781=CARTESIAN_POINT('',(48.69125,66.825,2.33));
#1782=CARTESIAN_POINT('Origin',(48.69125,67.825,2.33));
#1783=CARTESIAN_POINT('',(27.9174999975589,66.825,2.33));
#1784=CARTESIAN_POINT('',(27.9174999975589,67.825,3.33));
#1785=CARTESIAN_POINT('Origin',(48.69125,67.825,6.58));
#1786=CARTESIAN_POINT('',(45.44125,67.825,6.58));
#1787=CARTESIAN_POINT('',(44.44125,66.825,6.58));
#1788=CARTESIAN_POINT('Origin',(44.44125,67.825,6.58));
#1789=CARTESIAN_POINT('Origin',(48.69125,66.825,6.58));
#1790=CARTESIAN_POINT('Origin',(48.69125,67.825,6.58));
#1791=CARTESIAN_POINT('Origin',(44.44125,67.825,3.645));
#1792=CARTESIAN_POINT('',(44.44125,66.825,3.645));
#1793=CARTESIAN_POINT('',(45.44125,67.825,3.645));
#1794=CARTESIAN_POINT('Origin',(7.14374999511784,66.825,0.));
#1795=CARTESIAN_POINT('',(66.825,66.825,0.));
#1796=CARTESIAN_POINT('',(7.14374999511784,66.825,0.));
#1797=CARTESIAN_POINT('',(66.825,66.825,0.));
#1798=CARTESIAN_POINT('',(66.825,66.825,13.));
#1799=CARTESIAN_POINT('',(66.825,66.825,0.));
#1800=CARTESIAN_POINT('',(7.14374999511784,66.825,13.));
#1801=CARTESIAN_POINT('',(64.29375,66.825,13.));
#1802=CARTESIAN_POINT('',(7.14374999511784,66.825,0.));
#1803=CARTESIAN_POINT('Origin',(48.69125,76.825,3.33));
#1804=CARTESIAN_POINT('',(48.69125,76.825,3.33));
#1805=CARTESIAN_POINT('Origin',(48.69125,76.825,6.58));
#1806=CARTESIAN_POINT('',(45.44125,76.825,6.58));
#1807=CARTESIAN_POINT('Origin',(45.44125,76.825,7.29));
#1808=CARTESIAN_POINT('Origin',(33.3375,33.3375,13.));
#1809=CARTESIAN_POINT('',(-0.149999999997006,59.53125,13.));
#1810=CARTESIAN_POINT('Origin',(7.14375023251301,59.53124976749,13.));
#1811=CARTESIAN_POINT('',(66.825,-0.149999999999997,13.));
#1812=CARTESIAN_POINT('',(66.825,66.825,13.));
#1813=CARTESIAN_POINT('',(-0.149999999999997,-0.149999999999997,13.));
#1814=CARTESIAN_POINT('',(66.825,-0.15,13.));
#1815=CARTESIAN_POINT('',(-0.149999999999997,-0.15,13.));
#1816=CARTESIAN_POINT('Origin',(33.3375000000001,33.3375,-6.));
#1817=CARTESIAN_POINT('',(2.350000000003,59.5312499203051,-6.));
#1818=CARTESIAN_POINT('',(7.14374999511784,64.325,-6.));
#1819=CARTESIAN_POINT('Origin',(7.143750232513,59.53124976749,-6.));
#1820=CARTESIAN_POINT('',(2.35000000000013,2.35,-6.));
#1821=CARTESIAN_POINT('',(2.3500000000009,17.8437500000008,-6.));
#1822=CARTESIAN_POINT('',(64.325,2.35,-6.));
#1823=CARTESIAN_POINT('',(48.83125,2.35,-6.));
#1824=CARTESIAN_POINT('',(64.325,64.325,-6.));
#1825=CARTESIAN_POINT('',(64.325,48.83125,-6.));
#1826=CARTESIAN_POINT('',(20.240624997559,64.325,-6.));
#1827=CARTESIAN_POINT('Origin',(64.325,64.325,-7.));
#1828=CARTESIAN_POINT('',(64.325,2.35,0.));
#1829=CARTESIAN_POINT('',(64.325,2.35,-7.));
#1830=CARTESIAN_POINT('',(64.325,64.325,0.));
#1831=CARTESIAN_POINT('',(64.325,2.35,0.));
#1832=CARTESIAN_POINT('',(64.325,64.325,-7.));
#1833=CARTESIAN_POINT('Origin',(64.325,2.35,-7.));
#1834=CARTESIAN_POINT('',(2.35000000000013,2.35,0.));
#1835=CARTESIAN_POINT('',(2.35000000000013,2.35,-7.));
#1836=CARTESIAN_POINT('',(2.35000000000013,2.35,0.));
#1837=CARTESIAN_POINT('Origin',(2.35000000000013,2.35,-7.));
#1838=CARTESIAN_POINT('',(2.35000000000299,59.5312499203051,0.));
#1839=CARTESIAN_POINT('',(2.35000000000299,59.5312499203051,-7.));
#1840=CARTESIAN_POINT('',(2.35000000000299,59.5312499203051,0.));
#1841=CARTESIAN_POINT('Origin',(-0.149999999999997,-0.15,0.));
#1842=CARTESIAN_POINT('',(-0.149999999997006,59.53125,0.));
#1843=CARTESIAN_POINT('',(-0.149999999999997,-0.149999999999997,0.));
#1844=CARTESIAN_POINT('',(-0.149999999997006,59.53125,0.));
#1845=CARTESIAN_POINT('',(-0.149999999997006,59.53125,0.));
#1846=CARTESIAN_POINT('',(-0.149999999999997,-0.15,0.));
#1847=CARTESIAN_POINT('Origin',(7.14375023251301,59.53124976749,0.));
#1848=CARTESIAN_POINT('Origin',(7.143750232513,59.53124976749,0.));
#1849=CARTESIAN_POINT('Origin',(66.825,-0.15,0.));
#1850=CARTESIAN_POINT('',(66.825,-0.149999999999997,0.));
#1851=CARTESIAN_POINT('',(-0.149999999999997,-0.149999999999997,0.));
#1852=CARTESIAN_POINT('',(66.825,-0.149999999999997,0.));
#1853=CARTESIAN_POINT('Origin',(66.825,66.825,0.));
#1854=CARTESIAN_POINT('',(66.825,-0.149999999999997,0.));
#1855=CARTESIAN_POINT('Origin',(7.14374999511784,64.325,-7.));
#1856=CARTESIAN_POINT('',(7.14374999511784,64.325,0.));
#1857=CARTESIAN_POINT('',(64.325,64.325,0.));
#1858=CARTESIAN_POINT('',(7.14374999511784,64.325,-7.));
#1859=CARTESIAN_POINT('Origin',(7.143750232513,59.53124976749,-7.));
#1860=CARTESIAN_POINT('Origin',(7.143750232513,59.53124976749,0.));
#1861=CARTESIAN_POINT('Origin',(33.3375,33.3375,0.));
#1862=UNCERTAINTY_MEASURE_WITH_UNIT(LENGTH_MEASURE(0.01),#1866,
'DISTANCE_ACCURACY_VALUE',
'Maximum model space distance between geometric entities at asserted c
onnectivities');
#1863=UNCERTAINTY_MEASURE_WITH_UNIT(LENGTH_MEASURE(0.01),#1866,
'DISTANCE_ACCURACY_VALUE',
'Maximum model space distance between geometric entities at asserted c
onnectivities');
#1864=(
GEOMETRIC_REPRESENTATION_CONTEXT(3)
GLOBAL_UNCERTAINTY_ASSIGNED_CONTEXT((#1862))
GLOBAL_UNIT_ASSIGNED_CONTEXT((#1866,#1867,#1868))
REPRESENTATION_CONTEXT('','3D')
);
#1865=(
GEOMETRIC_REPRESENTATION_CONTEXT(3)
GLOBAL_UNCERTAINTY_ASSIGNED_CONTEXT((#1863))
GLOBAL_UNIT_ASSIGNED_CONTEXT((#1866,#1867,#1868))
REPRESENTATION_CONTEXT('','3D')
);
#1866=(
LENGTH_UNIT()
NAMED_UNIT(*)
SI_UNIT(.MILLI.,.METRE.)
);
#1867=(
NAMED_UNIT(*)
PLANE_ANGLE_UNIT()
SI_UNIT($,.RADIAN.)
);
#1868=(
NAMED_UNIT(*)
SI_UNIT($,.STERADIAN.)
SOLID_ANGLE_UNIT()
);
#1869=SHAPE_DEFINITION_REPRESENTATION(#1870,#1871);
#1870=PRODUCT_DEFINITION_SHAPE('',$,#1873);
#1871=SHAPE_REPRESENTATION('',(#1082),#1864);
#1872=PRODUCT_DEFINITION_CONTEXT('part definition',#1877,'design');
#1873=PRODUCT_DEFINITION('AnishPad 1','AnishPad v16',#1874,#1872);
#1874=PRODUCT_DEFINITION_FORMATION('',$,#1879);
#1875=PRODUCT_RELATED_PRODUCT_CATEGORY('AnishPad v16','AnishPad v16',(#1879));
#1876=APPLICATION_PROTOCOL_DEFINITION('international standard',
'automotive_design',2009,#1877);
#1877=APPLICATION_CONTEXT(
'Core Data for Automotive Mechanical Design Process');
#1878=PRODUCT_CONTEXT('part definition',#1877,'mechanical');
#1879=PRODUCT('AnishPad 1','AnishPad v16','KiCad electronic assembly',(#1878));
#1880=PRESENTATION_STYLE_ASSIGNMENT((#1911));
#1881=PRESENTATION_STYLE_ASSIGNMENT((#1912));
#1882=PRESENTATION_STYLE_ASSIGNMENT((#1913));
#1883=PRESENTATION_STYLE_ASSIGNMENT((#1914));
#1884=PRESENTATION_STYLE_ASSIGNMENT((#1915));
#1885=PRESENTATION_STYLE_ASSIGNMENT((#1916));
#1886=PRESENTATION_STYLE_ASSIGNMENT((#1917));
#1887=PRESENTATION_STYLE_ASSIGNMENT((#1918));
#1888=PRESENTATION_STYLE_ASSIGNMENT((#1919));
#1889=PRESENTATION_STYLE_ASSIGNMENT((#1920));
#1890=PRESENTATION_STYLE_ASSIGNMENT((#1921));
#1891=PRESENTATION_STYLE_ASSIGNMENT((#1922));
#1892=PRESENTATION_STYLE_ASSIGNMENT((#1923));
#1893=PRESENTATION_STYLE_ASSIGNMENT((#1924));
#1894=PRESENTATION_STYLE_ASSIGNMENT((#1925));
#1895=PRESENTATION_STYLE_ASSIGNMENT((#1926));
#1896=PRESENTATION_STYLE_ASSIGNMENT((#1927));
#1897=PRESENTATION_STYLE_ASSIGNMENT((#1928));
#1898=PRESENTATION_STYLE_ASSIGNMENT((#1929));
#1899=PRESENTATION_STYLE_ASSIGNMENT((#1930));
#1900=PRESENTATION_STYLE_ASSIGNMENT((#1931));
#1901=PRESENTATION_STYLE_ASSIGNMENT((#1932));
#1902=PRESENTATION_STYLE_ASSIGNMENT((#1933));
#1903=PRESENTATION_STYLE_ASSIGNMENT((#1934));
#1904=PRESENTATION_STYLE_ASSIGNMENT((#1935));
#1905=PRESENTATION_STYLE_ASSIGNMENT((#1936));
#1906=PRESENTATION_STYLE_ASSIGNMENT((#1937));
#1907=PRESENTATION_STYLE_ASSIGNMENT((#1938));
#1908=PRESENTATION_STYLE_ASSIGNMENT((#1939));
#1909=PRESENTATION_STYLE_ASSIGNMENT((#1940));
#1910=PRESENTATION_STYLE_ASSIGNMENT((#1941));
#1911=SURFACE_STYLE_USAGE(.BOTH.,#1942);
#1912=SURFACE_STYLE_USAGE(.BOTH.,#1943);
#1913=SURFACE_STYLE_USAGE(.BOTH.,#1944);
#1914=SURFACE_STYLE_USAGE(.BOTH.,#1945);
#1915=SURFACE_STYLE_USAGE(.BOTH.,#1946);
#1916=SURFACE_STYLE_USAGE(.BOTH.,#1947);
#1917=SURFACE_STYLE_USAGE(.BOTH.,#1948);
#1918=SURFACE_STYLE_USAGE(.BOTH.,#1949);
#1919=SURFACE_STYLE_USAGE(.BOTH.,#1950);
#1920=SURFACE_STYLE_USAGE(.BOTH.,#1951);
#1921=SURFACE_STYLE_USAGE(.BOTH.,#1952);
#1922=SURFACE_STYLE_USAGE(.BOTH.,#1953);
#1923=SURFACE_STYLE_USAGE(.BOTH.,#1954);
#1924=SURFACE_STYLE_USAGE(.BOTH.,#1955);
#1925=SURFACE_STYLE_USAGE(.BOTH.,#1956);
#1926=SURFACE_STYLE_USAGE(.BOTH.,#1957);
#1927=SURFACE_STYLE_USAGE(.BOTH.,#1958);
#1928=SURFACE_STYLE_USAGE(.BOTH.,#1959);
#1929=SURFACE_STYLE_USAGE(.BOTH.,#1960);
#1930=SURFACE_STYLE_USAGE(.BOTH.,#1961);
#1931=SURFACE_STYLE_USAGE(.BOTH.,#1962);
#1932=SURFACE_STYLE_USAGE(.BOTH.,#1963);
#1933=SURFACE_STYLE_USAGE(.BOTH.,#1964);
#1934=SURFACE_STYLE_USAGE(.BOTH.,#1965);
#1935=SURFACE_STYLE_USAGE(.BOTH.,#1966);
#1936=SURFACE_STYLE_USAGE(.BOTH.,#1967);
#1937=SURFACE_STYLE_USAGE(.BOTH.,#1968);
#1938=SURFACE_STYLE_USAGE(.BOTH.,#1969);
#1939=SURFACE_STYLE_USAGE(.BOTH.,#1970);
#1940=SURFACE_STYLE_USAGE(.BOTH.,#1971);
#1941=SURFACE_STYLE_USAGE(.BOTH.,#1972);
#1942=SURFACE_SIDE_STYLE('',(#1973));
#1943=SURFACE_SIDE_STYLE('',(#1974));
#1944=SURFACE_SIDE_STYLE('',(#1975));
#1945=SURFACE_SIDE_STYLE('',(#1976));
#1946=SURFACE_SIDE_STYLE('',(#1977));
#1947=SURFACE_SIDE_STYLE('',(#1978));
#1948=SURFACE_SIDE_STYLE('',(#1979));
#1949=SURFACE_SIDE_STYLE('',(#1980));
#1950=SURFACE_SIDE_STYLE('',(#1981));
#1951=SURFACE_SIDE_STYLE('',(#1982));
#1952=SURFACE_SIDE_STYLE('',(#1983));
#1953=SURFACE_SIDE_STYLE('',(#1984));
#1954=SURFACE_SIDE_STYLE('',(#1985));
#1955=SURFACE_SIDE_STYLE('',(#1986));
#1956=SURFACE_SIDE_STYLE('',(#1987));
#1957=SURFACE_SIDE_STYLE('',(#1988));
#1958=SURFACE_SIDE_STYLE('',(#1989));
#1959=SURFACE_SIDE_STYLE('',(#1990));
#1960=SURFACE_SIDE_STYLE('',(#1991));
#1961=SURFACE_SIDE_STYLE('',(#1992));
#1962=SURFACE_SIDE_STYLE('',(#1993));
#1963=SURFACE_SIDE_STYLE('',(#1994));
#1964=SURFACE_SIDE_STYLE('',(#1995));
#1965=SURFACE_SIDE_STYLE('',(#1996));
#1966=SURFACE_SIDE_STYLE('',(#1997));
#1967=SURFACE_SIDE_STYLE('',(#1998));
#1968=SURFACE_SIDE_STYLE('',(#1999));
#1969=SURFACE_SIDE_STYLE('',(#2000));
#1970=SURFACE_SIDE_STYLE('',(#2001));
#1971=SURFACE_SIDE_STYLE('',(#2002));
#1972=SURFACE_SIDE_STYLE('',(#2003));
#1973=SURFACE_STYLE_FILL_AREA(#2004);
#1974=SURFACE_STYLE_FILL_AREA(#2005);
#1975=SURFACE_STYLE_FILL_AREA(#2006);
#1976=SURFACE_STYLE_FILL_AREA(#2007);
#1977=SURFACE_STYLE_FILL_AREA(#2008);
#1978=SURFACE_STYLE_FILL_AREA(#2009);
#1979=SURFACE_STYLE_FILL_AREA(#2010);
#1980=SURFACE_STYLE_FILL_AREA(#2011);
#1981=SURFACE_STYLE_FILL_AREA(#2012);
#1982=SURFACE_STYLE_FILL_AREA(#2013);
#1983=SURFACE_STYLE_FILL_AREA(#2014);
#1984=SURFACE_STYLE_FILL_AREA(#2015);
#1985=SURFACE_STYLE_FILL_AREA(#2016);
#1986=SURFACE_STYLE_FILL_AREA(#2017);
#1987=SURFACE_STYLE_FILL_AREA(#2018);
#1988=SURFACE_STYLE_FILL_AREA(#2019);
#1989=SURFACE_STYLE_FILL_AREA(#2020);
#1990=SURFACE_STYLE_FILL_AREA(#2021);
#1991=SURFACE_STYLE_FILL_AREA(#2022);
#1992=SURFACE_STYLE_FILL_AREA(#2023);
#1993=SURFACE_STYLE_FILL_AREA(#2024);
#1994=SURFACE_STYLE_FILL_AREA(#2025);
#1995=SURFACE_STYLE_FILL_AREA(#2026);
#1996=SURFACE_STYLE_FILL_AREA(#2027);
#1997=SURFACE_STYLE_FILL_AREA(#2028);
#1998=SURFACE_STYLE_FILL_AREA(#2029);
#1999=SURFACE_STYLE_FILL_AREA(#2030);
#2000=SURFACE_STYLE_FILL_AREA(#2031);
#2001=SURFACE_STYLE_FILL_AREA(#2032);
#2002=SURFACE_STYLE_FILL_AREA(#2033);
#2003=SURFACE_STYLE_FILL_AREA(#2034);
#2004=FILL_AREA_STYLE('Steel - Satin',(#2035));
#2005=FILL_AREA_STYLE('Paint - Enamel Glossy (White)',(#2036));
#2006=FILL_AREA_STYLE('ABS (White)',(#2037));
#2007=FILL_AREA_STYLE('ABS (White)',(#2038));
#2008=FILL_AREA_STYLE('Opaque(25,25,25)',(#2039));
#2009=FILL_AREA_STYLE('Opaque(255,255,255)',(#2040));
#2010=FILL_AREA_STYLE('Opaque(136,60,0)',(#2041));
#2011=FILL_AREA_STYLE('Opaque(219,188,126)',(#2042));
#2012=FILL_AREA_STYLE('Opaque(210,209,199)',(#2043));
#2013=FILL_AREA_STYLE('Opaque(192,192,192)',(#2044));
#2014=FILL_AREA_STYLE('Opaque(191,191,191)',(#2045));
#2015=FILL_AREA_STYLE('Opaque(0,0,255)',(#2046));
#2016=FILL_AREA_STYLE('Opaque(72,71,61)',(#2047));
#2017=FILL_AREA_STYLE('Opaque(69,80,94)',(#2048));
#2018=FILL_AREA_STYLE('Opaque(244,244,244)',(#2049));
#2019=FILL_AREA_STYLE('Opaque(242,242,255)',(#2050));
#2020=FILL_AREA_STYLE('Opaque(10,74,171)',(#2051));
#2021=FILL_AREA_STYLE('Opaque(5,5,5)',(#2052));
#2022=FILL_AREA_STYLE('Opaque(204,204,204)',(#2053));
#2023=FILL_AREA_STYLE('Opaque(10,10,10)',(#2054));
#2024=FILL_AREA_STYLE('Opaque(152,170,175)',(#2055));
#2025=FILL_AREA_STYLE('Opaque(63,63,63)',(#2056));
#2026=FILL_AREA_STYLE('Opaque(242,242,242)',(#2057));
#2027=FILL_AREA_STYLE('Opaque(211,212,213)',(#2058));
#2028=FILL_AREA_STYLE('Opaque(30,30,30)',(#2059));
#2029=FILL_AREA_STYLE('Opaque(176,173,173)',(#2060));
#2030=FILL_AREA_STYLE('Opaque(80,124,105)',(#2061));
#2031=FILL_AREA_STYLE('ABS (White)',(#2062));
#2032=FILL_AREA_STYLE('ABS (White)',(#2063));
#2033=FILL_AREA_STYLE('Opaque(44,44,44)',(#2064));
#2034=FILL_AREA_STYLE('Opaque(245,245,246)',(#2065));
#2035=FILL_AREA_STYLE_COLOUR('Steel - Satin',#2066);
#2036=FILL_AREA_STYLE_COLOUR('Paint - Enamel Glossy (White)',#2067);
#2037=FILL_AREA_STYLE_COLOUR('ABS (White)',#2068);
#2038=FILL_AREA_STYLE_COLOUR('ABS (White)',#2069);
#2039=FILL_AREA_STYLE_COLOUR('Opaque(25,25,25)',#2070);
#2040=FILL_AREA_STYLE_COLOUR('Opaque(255,255,255)',#2071);
#2041=FILL_AREA_STYLE_COLOUR('Opaque(136,60,0)',#2072);
#2042=FILL_AREA_STYLE_COLOUR('Opaque(219,188,126)',#2073);
#2043=FILL_AREA_STYLE_COLOUR('Opaque(210,209,199)',#2074);
#2044=FILL_AREA_STYLE_COLOUR('Opaque(192,192,192)',#2075);
#2045=FILL_AREA_STYLE_COLOUR('Opaque(191,191,191)',#2076);
#2046=FILL_AREA_STYLE_COLOUR('Opaque(0,0,255)',#2077);
#2047=FILL_AREA_STYLE_COLOUR('Opaque(72,71,61)',#2078);
#2048=FILL_AREA_STYLE_COLOUR('Opaque(69,80,94)',#2079);
#2049=FILL_AREA_STYLE_COLOUR('Opaque(244,244,244)',#2080);
#2050=FILL_AREA_STYLE_COLOUR('Opaque(242,242,255)',#2081);
#2051=FILL_AREA_STYLE_COLOUR('Opaque(10,74,171)',#2082);
#2052=FILL_AREA_STYLE_COLOUR('Opaque(5,5,5)',#2083);
#2053=FILL_AREA_STYLE_COLOUR('Opaque(204,204,204)',#2084);
#2054=FILL_AREA_STYLE_COLOUR('Opaque(10,10,10)',#2085);
#2055=FILL_AREA_STYLE_COLOUR('Opaque(152,170,175)',#2086);
#2056=FILL_AREA_STYLE_COLOUR('Opaque(63,63,63)',#2087);
#2057=FILL_AREA_STYLE_COLOUR('Opaque(242,242,242)',#2088);
#2058=FILL_AREA_STYLE_COLOUR('Opaque(211,212,213)',#2089);
#2059=FILL_AREA_STYLE_COLOUR('Opaque(30,30,30)',#2090);
#2060=FILL_AREA_STYLE_COLOUR('Opaque(176,173,173)',#2091);
#2061=FILL_AREA_STYLE_COLOUR('Opaque(80,124,105)',#2092);
#2062=FILL_AREA_STYLE_COLOUR('ABS (White)',#2093);
#2063=FILL_AREA_STYLE_COLOUR('ABS (White)',#2094);
#2064=FILL_AREA_STYLE_COLOUR('Opaque(44,44,44)',#2095);
#2065=FILL_AREA_STYLE_COLOUR('Opaque(245,245,246)',#2096);
#2066=COLOUR_RGB('Steel - Satin',0.627450980392157,0.627450980392157,0.627450980392157);
#2067=COLOUR_RGB('Paint - Enamel Glossy (White)',0.964705882352941,0.964705882352941,
0.952941176470588);
#2068=COLOUR_RGB('ABS (White)',0.741176470588235,0.447058823529412,0.172549019607843);
#2069=COLOUR_RGB('ABS (White)',0.741176470588235,0.643137254901961,0.196078431372549);
#2070=COLOUR_RGB('Opaque(25,25,25)',0.0980392156862745,0.0980392156862745,
0.0980392156862745);
#2071=COLOUR_RGB('Opaque(255,255,255)',1.,1.,1.);
#2072=COLOUR_RGB('Opaque(136,60,0)',0.533333333333333,0.235294117647059,
0.);
#2073=COLOUR_RGB('Opaque(219,188,126)',0.858823529411765,0.737254901960784,
0.494117647058824);
#2074=COLOUR_RGB('Opaque(210,209,199)',0.823529411764706,0.819607843137255,
0.780392156862745);
#2075=COLOUR_RGB('Opaque(192,192,192)',0.752941176470588,0.752941176470588,
0.752941176470588);
#2076=COLOUR_RGB('Opaque(191,191,191)',0.749019607843137,0.749019607843137,
0.749019607843137);
#2077=COLOUR_RGB('Opaque(0,0,255)',0.,0.,1.);
#2078=COLOUR_RGB('Opaque(72,71,61)',0.282352941176471,0.27843137254902,
0.23921568627451);
#2079=COLOUR_RGB('Opaque(69,80,94)',0.270588235294118,0.313725490196078,
0.368627450980392);
#2080=COLOUR_RGB('Opaque(244,244,244)',0.956862745098039,0.956862745098039,
0.956862745098039);
#2081=COLOUR_RGB('Opaque(242,242,255)',0.949019607843137,0.949019607843137,
1.);
#2082=COLOUR_RGB('Opaque(10,74,171)',0.0392156862745098,0.290196078431373,
0.670588235294118);
#2083=COLOUR_RGB('Opaque(5,5,5)',0.0196078431372549,0.0196078431372549,
0.0196078431372549);
#2084=COLOUR_RGB('Opaque(204,204,204)',0.8,0.8,0.8);
#2085=COLOUR_RGB('Opaque(10,10,10)',0.0392156862745098,0.0392156862745098,
0.0392156862745098);
#2086=COLOUR_RGB('Opaque(152,170,175)',0.596078431372549,0.666666666666667,
0.686274509803922);
#2087=COLOUR_RGB('Opaque(63,63,63)',0.250980392156863,0.250980392156863,
0.250980392156863);
#2088=COLOUR_RGB('Opaque(242,242,242)',0.949019607843137,0.949019607843137,
0.949019607843137);
#2089=COLOUR_RGB('Opaque(211,212,213)',0.827450980392157,0.831372549019608,
0.835294117647059);
#2090=COLOUR_RGB('Opaque(30,30,30)',0.117647058823529,0.117647058823529,
0.117647058823529);
#2091=COLOUR_RGB('Opaque(176,173,173)',0.690196078431373,0.67843137254902,
0.67843137254902);
#2092=COLOUR_RGB('Opaque(80,124,105)',0.313725490196078,0.486274509803922,
0.411764705882353);
#2093=COLOUR_RGB('ABS (White)',0.494117647058824,0.494117647058824,0.494117647058824);
#2094=COLOUR_RGB('ABS (White)',0.72156862745098,0.0980392156862745,0.);
#2095=COLOUR_RGB('Opaque(44,44,44)',0.172549019607843,0.172549019607843,
0.172549019607843);
#2096=COLOUR_RGB('Opaque(245,245,246)',0.96078431372549,0.96078431372549,
0.964705882352941);
ENDSEC;
END-ISO-10303-21;
